<svg width="92" height="16" viewBox="0 0 92 16" fill="none" xmlns="http://www.w3.org/2000/svg">
<path d="M22.9222 13L20.2539 3.54541H22.0959L23.7994 10.4932H23.8871L25.706 3.54541H27.3817L29.2053 10.4978H29.2884L30.9918 3.54541H32.8338L30.1655 13H28.4759L26.5831 6.36608H26.5092L24.6119 13H22.9222Z" fill="#101517"/>
<path d="M34.0214 13V3.54541H37.5669C38.2932 3.54541 38.9026 3.68083 39.395 3.95166C39.8905 4.22249 40.2644 4.59489 40.5168 5.06885C40.7722 5.53973 40.8999 6.07524 40.8999 6.67538C40.8999 7.28168 40.7722 7.82027 40.5168 8.29115C40.2613 8.76203 39.8843 9.13289 39.3857 9.40372C38.8872 9.67148 38.2732 9.80535 37.5438 9.80535H35.194V8.39733H37.3129C37.7377 8.39733 38.0854 8.32346 38.3563 8.17574C38.6271 8.02801 38.8271 7.82488 38.9564 7.56636C39.0887 7.30784 39.1549 7.01085 39.1549 6.67538C39.1549 6.33992 39.0887 6.04446 38.9564 5.78902C38.8271 5.53357 38.6256 5.33507 38.3517 5.19349C38.0808 5.04884 37.7315 4.97652 37.3037 4.97652H35.7341V13H34.0214Z" fill="#101517"/>
<path d="M45.6122 13V3.54541H51.669V4.98114H47.3249V7.5479H51.2536V8.98362H47.3249V13H45.6122Z" fill="#101517"/>
<path d="M55.7281 13.1385C55.0356 13.1385 54.4355 12.9861 53.9276 12.6814C53.4198 12.3767 53.0259 11.9505 52.7458 11.4027C52.4688 10.8548 52.3303 10.2147 52.3303 9.4822C52.3303 8.74972 52.4688 8.10803 52.7458 7.55713C53.0259 7.00623 53.4198 6.57844 53.9276 6.27375C54.4355 5.96906 55.0356 5.81672 55.7281 5.81672C56.4205 5.81672 57.0207 5.96906 57.5285 6.27375C58.0363 6.57844 58.4287 7.00623 58.7057 7.55713C58.9858 8.10803 59.1258 8.74972 59.1258 9.4822C59.1258 10.2147 58.9858 10.8548 58.7057 11.4027C58.4287 11.9505 58.0363 12.3767 57.5285 12.6814C57.0207 12.9861 56.4205 13.1385 55.7281 13.1385ZM55.7373 11.7997C56.1128 11.7997 56.4267 11.6966 56.6791 11.4904C56.9314 11.2811 57.1192 11.001 57.2423 10.6502C57.3685 10.2993 57.4316 9.90846 57.4316 9.47758C57.4316 9.04363 57.3685 8.65123 57.2423 8.30038C57.1192 7.94645 56.9314 7.66485 56.6791 7.45557C56.4267 7.24629 56.1128 7.14165 55.7373 7.14165C55.3526 7.14165 55.0325 7.24629 54.7771 7.45557C54.5247 7.66485 54.3354 7.94645 54.2093 8.30038C54.0861 8.65123 54.0246 9.04363 54.0246 9.47758C54.0246 9.90846 54.0861 10.2993 54.2093 10.6502C54.3354 11.001 54.5247 11.2811 54.7771 11.4904C55.0325 11.6966 55.3526 11.7997 55.7373 11.7997Z" fill="#101517"/>
<path d="M60.5442 13V5.90905H62.1646V7.09087H62.2385C62.3677 6.68154 62.5893 6.36608 62.9032 6.14449C63.2202 5.91982 63.5819 5.80748 63.9881 5.80748C64.0804 5.80748 64.1835 5.8121 64.2974 5.82133C64.4144 5.82749 64.5113 5.83826 64.5882 5.85365V7.39094C64.5175 7.36631 64.4051 7.34477 64.2512 7.32631C64.1004 7.30476 63.9543 7.29399 63.8127 7.29399C63.508 7.29399 63.2341 7.36016 62.9909 7.4925C62.7509 7.62176 62.5616 7.8018 62.4231 8.03263C62.2846 8.26345 62.2154 8.52967 62.2154 8.83128V13H60.5442Z" fill="#101517"/>
<path d="M70.218 10.0177V5.90905H71.8892V13H70.2688V11.7397H70.195C70.0349 12.1367 69.7718 12.4614 69.4055 12.7137C69.0424 12.9661 68.5946 13.0923 68.0621 13.0923C67.5974 13.0923 67.1866 12.9892 66.8295 12.783C66.4756 12.5737 66.1986 12.2706 65.9986 11.8735C65.7985 11.4734 65.6985 10.9902 65.6985 10.424V5.90905H67.3697V10.1654C67.3697 10.6148 67.4928 10.9718 67.739 11.2365C67.9852 11.5011 68.3084 11.6335 68.7085 11.6335C68.9547 11.6335 69.1932 11.5735 69.424 11.4534C69.6548 11.3334 69.8441 11.1549 69.9918 10.9179C70.1426 10.6779 70.218 10.3778 70.218 10.0177Z" fill="#101517"/>
<path d="M73.6077 13V5.90905H75.205V7.11395H75.2881C75.4358 6.7077 75.6805 6.3907 76.0221 6.16295C76.3637 5.93213 76.7715 5.81672 77.2455 5.81672C77.7256 5.81672 78.1303 5.93367 78.4596 6.16757C78.792 6.39839 79.0259 6.71385 79.1613 7.11395H79.2352C79.3921 6.72001 79.6568 6.40609 80.0292 6.17219C80.4047 5.93521 80.8494 5.81672 81.3634 5.81672C82.0158 5.81672 82.5483 6.02292 82.9607 6.43533C83.3731 6.84773 83.5793 7.44941 83.5793 8.24037V13H81.9035V8.49889C81.9035 8.05879 81.7865 7.73717 81.5526 7.53405C81.3187 7.32784 81.0325 7.22474 80.694 7.22474C80.2908 7.22474 79.9754 7.35093 79.7476 7.60329C79.5229 7.85258 79.4106 8.17728 79.4106 8.57737V13H77.7718V8.42964C77.7718 8.0634 77.661 7.77103 77.4394 7.55251C77.2209 7.334 76.9346 7.22474 76.5807 7.22474C76.3406 7.22474 76.1221 7.2863 75.9252 7.4094C75.7282 7.52943 75.5712 7.70024 75.4543 7.92183C75.3373 8.14034 75.2789 8.39579 75.2789 8.68817V13H73.6077Z" fill="#101517"/>
<path d="M90.8791 7.78334L89.3556 7.94953C89.3126 7.79565 89.2372 7.651 89.1294 7.51558C89.0248 7.38016 88.8832 7.27091 88.7047 7.18781C88.5262 7.10471 88.3077 7.06317 88.0492 7.06317C87.7014 7.06317 87.409 7.13857 87.1721 7.28937C86.9381 7.44018 86.8227 7.63561 86.8258 7.87567C86.8227 8.08187 86.8981 8.2496 87.052 8.37886C87.209 8.50812 87.4675 8.6143 87.8276 8.6974L89.0371 8.95592C89.708 9.10057 90.2066 9.32986 90.5328 9.64378C90.8622 9.9577 91.0283 10.3686 91.0314 10.8764C91.0283 11.3226 90.8976 11.7166 90.639 12.0582C90.3836 12.3967 90.0281 12.6614 89.5726 12.8522C89.1171 13.043 88.5939 13.1385 88.003 13.1385C87.1351 13.1385 86.4365 12.9569 85.9071 12.5937C85.3778 12.2275 85.0623 11.7181 84.9608 11.0657L86.5904 10.9087C86.6642 11.2288 86.8212 11.4704 87.0613 11.6335C87.3013 11.7966 87.6137 11.8782 87.9984 11.8782C88.3954 11.8782 88.714 11.7966 88.954 11.6335C89.1971 11.4704 89.3187 11.2688 89.3187 11.0287C89.3187 10.8256 89.2402 10.6579 89.0833 10.5255C88.9294 10.3932 88.6893 10.2916 88.3631 10.2208L87.1536 9.96693C86.4734 9.82536 85.9702 9.58684 85.644 9.25138C85.3178 8.91283 85.1562 8.48504 85.1593 7.968C85.1562 7.53097 85.2747 7.15242 85.5147 6.83234C85.7579 6.50919 86.0949 6.2599 86.5257 6.08447C86.9597 5.90597 87.4598 5.81672 88.0261 5.81672C88.8571 5.81672 89.5111 5.99368 89.9881 6.34761C90.4682 6.70154 90.7652 7.18012 90.8791 7.78334Z" fill="#101517"/>
<path fill-rule="evenodd" clip-rule="evenodd" d="M8 16C12.4183 16 16 12.4183 16 8C16 3.58172 12.4183 0 8 0C3.58172 0 0 3.58172 0 8C0 12.4183 3.58172 16 8 16ZM10.6671 10.8891H6.44485L5.24959 12.0844C5.16119 12.1728 5.04128 12.2224 4.91626 12.2224C4.65591 12.2224 4.44485 12.0114 4.44485 11.751L4.44485 6.00021C4.44485 5.50929 4.84282 5.11132 5.33374 5.11132L10.6671 5.11132C11.158 5.11132 11.556 5.50929 11.556 6.00021V10.0002C11.556 10.4911 11.158 10.8891 10.6671 10.8891Z" fill="#101517"/>
</svg>
