<svg width="21" height="21" viewBox="0 0 21 21" fill="none" xmlns="http://www.w3.org/2000/svg">
<path fill-rule="evenodd" clip-rule="evenodd" d="M0.469666 1.53033L19.4697 20.5303L20.5303 19.4697L18.437 17.3763C19.3314 17.1589 20 16.288 20 15.2467V10.1818C20 8.97683 19.1046 8 18 8H17.5V9.5H18C18.1559 9.5 18.5 9.67973 18.5 10.1818V15.2467C18.5 15.7488 18.1559 15.9286 18 15.9286H16.9892L14.2345 13.1738C15.2395 12.9686 16 12.0065 16 10.8506V5.36363C16 4.05823 15.0299 3 13.8333 3L9.5 3C9.124 3 4.44052 3 4.06066 3L1.53033 0.469666L0.469666 1.53033ZM5.56066 4.5L12.7749 11.7143H13.8333C14.0813 11.7143 14.5 11.4531 14.5 10.8506V5.36363C14.5 4.76113 14.0813 4.5 13.8333 4.5H5.56066Z" fill="#00101C"/>
<path d="M10.7301 15.9286H12.8679L14.3679 17.4286H11.375L9.13157 19.7953C9.00708 19.9266 8.84069 20 8.66753 20C8.29886 20 8 19.674 8 19.2718V15.8516L8.875 14.9286H9.5V17.2262L10.7301 15.9286Z" fill="#00101C"/>
<path d="M10.1536 13.2143L8.65362 11.7143H6.0113L4.5 13.3086V7.56066L3 6.06066V15.2111C3 15.6468 3.32376 16 3.72315 16C3.91075 16 4.09101 15.9205 4.22586 15.7782L6.65625 13.2143H10.1536Z" fill="#00101C"/>
</svg>
