<svg width="16" height="16" viewBox="0 0 16 16" fill="none" xmlns="http://www.w3.org/2000/svg">
<path d="M14.4437 11.9062C14.2291 12.0177 14.0079 12.1159 13.7812 12.2C13.0634 12.4672 12.3033 12.6027 11.5375 12.6C8.5812 12.6 6.0062 10.5688 6.0062 7.95625C6.01004 7.60643 6.10703 7.26394 6.28719 6.96405C6.46734 6.66415 6.72416 6.41768 7.0312 6.25C4.3562 6.3625 3.6687 9.15 3.6687 10.7812C3.6687 15.4062 7.92495 15.8687 8.8437 15.8687C9.33745 15.8687 10.0812 15.725 10.5312 15.5813L10.6125 15.5562C12.3346 14.9611 13.8027 13.7972 14.775 12.2563C14.8032 12.2094 14.8153 12.1546 14.8095 12.1003C14.8036 12.0459 14.7801 11.9949 14.7425 11.9552C14.7049 11.9155 14.6553 11.8892 14.6013 11.8804C14.5474 11.8715 14.492 11.8806 14.4437 11.9062Z" fill="url(#paint0_linear_4709_52243)"/>
<path opacity="0.35" d="M14.4437 11.9062C14.2291 12.0177 14.0079 12.1159 13.7812 12.2C13.0634 12.4672 12.3033 12.6027 11.5375 12.6C8.5812 12.6 6.0062 10.5688 6.0062 7.95625C6.01004 7.60643 6.10703 7.26394 6.28719 6.96405C6.46734 6.66415 6.72416 6.41768 7.0312 6.25C4.3562 6.3625 3.6687 9.15 3.6687 10.7812C3.6687 15.4062 7.92495 15.8687 8.8437 15.8687C9.33745 15.8687 10.0812 15.725 10.5312 15.5813L10.6125 15.5562C12.3346 14.9611 13.8027 13.7972 14.775 12.2563C14.8032 12.2094 14.8153 12.1546 14.8095 12.1003C14.8036 12.0459 14.7801 11.9949 14.7425 11.9552C14.7049 11.9155 14.6553 11.8892 14.6013 11.8804C14.5474 11.8715 14.492 11.8806 14.4437 11.9062Z" fill="url(#paint1_radial_4709_52243)"/>
<path d="M6.60619 15.0813C6.04987 14.7358 5.56764 14.2833 5.18744 13.7501C4.75328 13.1558 4.45442 12.4738 4.31185 11.7518C4.16928 11.0297 4.18644 10.2853 4.36213 9.57058C4.53782 8.8559 4.86779 8.18832 5.32887 7.61471C5.78996 7.04109 6.37099 6.57532 7.03119 6.2501C7.23119 6.15635 7.56244 5.99385 8.00619 6.0001C8.31845 6.00251 8.62591 6.07711 8.90456 6.21806C9.1832 6.35901 9.42548 6.56249 9.61244 6.8126C9.86392 7.15078 10.0018 7.55994 10.0062 7.98135C10.0062 7.96885 11.5374 3.00635 5.00619 3.00635C2.26244 3.00635 0.00619129 5.60635 0.00619129 7.89385C-0.00472212 9.10219 0.253615 10.2978 0.762441 11.3938C1.59574 13.1682 3.05153 14.5749 4.85346 15.3468C6.6554 16.1188 8.67804 16.2022 10.5374 15.5813C9.88601 15.7871 9.19768 15.8489 8.52 15.7626C7.84233 15.6763 7.19148 15.4438 6.61244 15.0813H6.60619Z" fill="url(#paint2_linear_4709_52243)"/>
<path opacity="0.41" d="M6.60619 15.0813C6.04987 14.7358 5.56764 14.2833 5.18744 13.7501C4.75328 13.1558 4.45442 12.4738 4.31185 11.7518C4.16928 11.0297 4.18644 10.2853 4.36213 9.57058C4.53782 8.8559 4.86779 8.18832 5.32887 7.61471C5.78996 7.04109 6.37099 6.57532 7.03119 6.2501C7.23119 6.15635 7.56244 5.99385 8.00619 6.0001C8.31845 6.00251 8.62591 6.07711 8.90456 6.21806C9.1832 6.35901 9.42548 6.56249 9.61244 6.8126C9.86392 7.15078 10.0018 7.55994 10.0062 7.98135C10.0062 7.96885 11.5374 3.00635 5.00619 3.00635C2.26244 3.00635 0.00619129 5.60635 0.00619129 7.89385C-0.00472212 9.10219 0.253615 10.2978 0.762441 11.3938C1.59574 13.1682 3.05153 14.5749 4.85346 15.3468C6.6554 16.1188 8.67804 16.2022 10.5374 15.5813C9.88601 15.7871 9.19768 15.8489 8.52 15.7626C7.84233 15.6763 7.19148 15.4438 6.61244 15.0813H6.60619Z" fill="url(#paint3_radial_4709_52243)"/>
<path d="M9.525 9.3C9.46875 9.3625 9.3125 9.45625 9.3125 9.65C9.3125 9.8125 9.41875 9.975 9.6125 10.1062C10.5062 10.7312 12.2 10.6438 12.2062 10.6438C12.8725 10.6433 13.5265 10.4642 14.1 10.125C14.6774 9.78729 15.1565 9.30452 15.4897 8.72458C15.823 8.14463 15.9989 7.48764 16 6.81875C16.0187 5.41875 15.5 4.4875 15.2937 4.075C13.9625 1.4875 11.1062 3.91651e-08 8 3.91651e-08C5.89762 -0.000207848 3.87965 0.827187 2.38255 2.30323C0.885453 3.77928 0.0295648 5.78532 0 7.8875C0.03125 5.60625 2.3 3.7625 5 3.7625C5.21875 3.7625 6.46875 3.78125 7.625 4.3875C8.43732 4.79116 9.11001 5.42902 9.55625 6.21875C9.9375 6.88125 10.0062 7.725 10.0062 8.0625C10.0062 8.4 9.8375 8.89375 9.51875 9.30625L9.525 9.3Z" fill="url(#paint4_radial_4709_52243)"/>
<path d="M9.525 9.3C9.46875 9.3625 9.3125 9.45625 9.3125 9.65C9.3125 9.8125 9.41875 9.975 9.6125 10.1062C10.5062 10.7312 12.2 10.6438 12.2062 10.6438C12.8725 10.6433 13.5265 10.4642 14.1 10.125C14.6774 9.78729 15.1565 9.30452 15.4897 8.72458C15.823 8.14463 15.9989 7.48764 16 6.81875C16.0187 5.41875 15.5 4.4875 15.2937 4.075C13.9625 1.4875 11.1062 3.91651e-08 8 3.91651e-08C5.89762 -0.000207848 3.87965 0.827187 2.38255 2.30323C0.885453 3.77928 0.0295648 5.78532 0 7.8875C0.03125 5.60625 2.3 3.7625 5 3.7625C5.21875 3.7625 6.46875 3.78125 7.625 4.3875C8.43732 4.79116 9.11001 5.42902 9.55625 6.21875C9.9375 6.88125 10.0062 7.725 10.0062 8.0625C10.0062 8.4 9.8375 8.89375 9.51875 9.30625L9.525 9.3Z" fill="url(#paint5_radial_4709_52243)"/>
<defs>
<linearGradient id="paint0_linear_4709_52243" x1="3.6687" y1="11.0625" x2="14.8187" y2="11.0625" gradientUnits="userSpaceOnUse">
<stop stop-color="#0C59A4"/>
<stop offset="1" stop-color="#114A8B"/>
</linearGradient>
<radialGradient id="paint1_radial_4709_52243" cx="0" cy="0" r="1" gradientUnits="userSpaceOnUse" gradientTransform="translate(9.82495 11.1466) scale(5.9625 5.66437)">
<stop offset="0.7" stop-opacity="0"/>
<stop offset="0.9" stop-opacity="0.5"/>
<stop offset="1"/>
</radialGradient>
<linearGradient id="paint2_linear_4709_52243" x1="9.54369" y1="6.2251" x2="2.58744" y2="13.8063" gradientUnits="userSpaceOnUse">
<stop stop-color="#1B9DE2"/>
<stop offset="0.2" stop-color="#1595DF"/>
<stop offset="0.7" stop-color="#0680D7"/>
<stop offset="1" stop-color="#0078D4"/>
</linearGradient>
<radialGradient id="paint3_radial_4709_52243" cx="0" cy="0" r="1" gradientUnits="userSpaceOnUse" gradientTransform="translate(4.40963 12.4337) rotate(-81.3844) scale(8.96163 7.24009)">
<stop offset="0.8" stop-opacity="0"/>
<stop offset="0.9" stop-opacity="0.5"/>
<stop offset="1"/>
</radialGradient>
<radialGradient id="paint4_radial_4709_52243" cx="0" cy="0" r="1" gradientUnits="userSpaceOnUse" gradientTransform="translate(1.61812 2.95725) rotate(92.2906) scale(12.6601 26.9634)">
<stop stop-color="#35C1F1"/>
<stop offset="0.1" stop-color="#34C1ED"/>
<stop offset="0.2" stop-color="#2FC2DF"/>
<stop offset="0.3" stop-color="#2BC3D2"/>
<stop offset="0.7" stop-color="#36C752"/>
</radialGradient>
<radialGradient id="paint5_radial_4709_52243" cx="0" cy="0" r="1" gradientUnits="userSpaceOnUse" gradientTransform="translate(15.0038 4.83125) rotate(73.7398) scale(6.08125 4.94527)">
<stop stop-color="#66EB6E"/>
<stop offset="1" stop-color="#66EB6E" stop-opacity="0"/>
</radialGradient>
</defs>
</svg>
