<svg width="24" height="24" viewBox="0 0 24 24" fill="none" xmlns="http://www.w3.org/2000/svg">
<path fill-rule="evenodd" clip-rule="evenodd" d="M11.9999 2.71436C10.7376 2.71436 9.71423 3.7377 9.71423 5.00007H7.46737H4V7.00007H5.46695C5.46715 7.09837 5.47459 7.19805 5.48977 7.29857L7.17171 18.4414C7.31936 19.4196 8.16001 20.1429 9.14931 20.1429H14.8506C15.8399 20.1429 16.6806 19.4196 16.8282 18.4414L18.5102 7.29858C18.5253 7.19805 18.5328 7.09837 18.533 7.00007H20V5.00007H16.5326H14.2857C14.2857 3.7377 13.2623 2.71436 11.9999 2.71436ZM16.8183 7.00007H7.18159C7.18162 7.01411 7.18268 7.02835 7.18485 7.04271L8.86679 18.1855C8.88788 18.3253 9.00798 18.4286 9.14931 18.4286H14.8506C14.992 18.4286 15.112 18.3253 15.1331 18.1855L16.8151 7.04271C16.8172 7.02835 16.8183 7.01411 16.8183 7.00007Z" fill="#2C3338"/>
</svg>
