<svg width="24" height="24" viewBox="0 0 24 24" fill="none" xmlns="http://www.w3.org/2000/svg">
<path fill-rule="evenodd" clip-rule="evenodd" d="M5.93939 17.0001L2.96973 19.9697L4.03039 21.0304L21.0304 4.03039L19.9697 2.96973L16.3553 6.5842C15.5139 5.04437 13.8788 4.00006 12 4.00006C9.2783 4.00006 7.06787 6.1916 7.04139 8.90631L7.04064 11.0353L4.13026 15.7001C3.77703 16.2663 4.1841 17.0001 4.85141 17.0001H5.93939ZM7.43939 15.5001L15.2279 7.71159C14.728 6.41804 13.4716 5.50006 12 5.50006C10.0892 5.50006 8.54115 7.04772 8.54115 8.95563L8.54064 11.4648L6.02308 15.5001H7.43939ZM19.1475 17.0001H10.0607L11.5607 15.5001H17.9759L15.5112 11.5496L16.9585 10.1023L16.9583 11.0353L19.8687 15.7001C20.2219 16.2663 19.8148 17.0001 19.1475 17.0001ZM14.0001 18.0001C14.0001 19.1046 13.1046 20.0001 12.0001 20.0001C10.8955 20.0001 10.0001 19.1046 10.0001 18.0001H14.0001Z" fill="#00101C"/>
</svg>
