<svg width="24" height="24" viewBox="0 0 24 24" fill="none" xmlns="http://www.w3.org/2000/svg">
<path d="M17.1919 6.74976L15.4701 5.03076L16.5299 3.96924L20.0661 7.49971L16.5299 11.0307L15.4701 9.96928L17.1921 8.24976H15.0701C14.6523 8.24976 14.2622 8.45855 14.0303 8.80638L12.6525 10.8731L11.7511 9.52107L12.7822 7.97433C13.2922 7.20937 14.1505 6.74976 15.0701 6.74976H17.1919Z" fill="#00101C"/>
<path d="M9.34738 13.1266L10.2488 14.4787L9.21777 16.0252C8.70774 16.7902 7.8491 17.2498 6.92963 17.2498H4.5V15.7498H6.92963C7.34757 15.7498 7.73786 15.5409 7.9697 15.1931L9.34738 13.1266Z" fill="#00101C"/>
<path d="M15.4701 18.969L17.1919 17.25H15.0701C14.1505 17.25 13.2922 16.7904 12.7822 16.0254L7.9697 8.80663C7.73786 8.45888 7.34757 8.25 6.92963 8.25H4.5V6.75H6.92963C7.8491 6.75 8.70774 7.20953 9.21777 7.97457L14.0303 15.1934C14.2622 15.5412 14.6523 15.75 15.0701 15.75H17.1921L15.4701 14.0305L16.5299 12.969L20.0661 16.5L16.5299 20.0305L15.4701 18.969Z" fill="#00101C"/>
</svg>
