<svg width="24" height="24" viewBox="0 0 24 24" fill="none" xmlns="http://www.w3.org/2000/svg">
<path d="M9 5.5H18C18.2761 5.5 18.5 5.72386 18.5 6V18C18.5 18.2761 18.2761 18.5 18 18.5H9C8.72386 18.5 8.5 18.2761 8.5 18V17.5H7V18C7 19.1046 7.89543 20 9 20H18C19.1046 20 20 19.1046 20 18V6C20 4.89543 19.1046 4 18 4H9C7.89543 4 7 4.89543 7 6V6.5H8.5V6C8.5 5.72386 8.72386 5.5 9 5.5Z" fill="#2C3338"/>
<path d="M8.5 8H7.5C5.29086 8 3.5 9.79086 3.5 12C3.5 14.2091 5.29086 16 7.5 16H8.5V14.5H7.5C6.11929 14.5 5 13.3807 5 12C5 10.6193 6.11929 9.5 7.5 9.5H8.5V8Z" fill="#2C3338"/>
<path d="M11.5 14.5H12.5C13.8807 14.5 15 13.3807 15 12C15 10.6193 13.8807 9.5 12.5 9.5H11.5V8H12.5C14.7091 8 16.5 9.79086 16.5 12C16.5 14.2091 14.7091 16 12.5 16H11.5V14.5Z" fill="#2C3338"/>
<path d="M7.5 12.75H12.5V11.25L7.5 11.25L7.5 12.75Z" fill="#2C3338"/>
</svg>
