<svg width="32" height="32" viewBox="0 0 32 32" fill="none" xmlns="http://www.w3.org/2000/svg">
<circle cx="16" cy="16" r="16" fill="#0675C4"/>
<path fill-rule="evenodd" clip-rule="evenodd" d="M21 24.7809L24.0258 15.7241C24.5913 14.2609 24.7795 13.0911 24.7795 12.0508C24.7795 11.6732 24.7554 11.3227 24.7127 10.9961C25.4861 12.4568 25.9262 14.1331 25.9262 15.9164C25.9262 19.6998 23.9455 23.0035 21 24.7809ZM17.3837 11.1074C17.9801 11.075 18.5175 11.01 18.5175 11.01C19.0513 10.9448 18.9885 10.1325 18.4545 10.1649C18.4545 10.1649 16.8497 10.2952 15.8138 10.2952C14.8401 10.2952 13.2044 10.1649 13.2044 10.1649C12.6702 10.1325 12.6076 10.9773 13.1418 11.01C13.1418 11.01 13.6471 11.075 14.1807 11.1074L15.7241 15.4854L13.5555 22.2164L9.9482 11.1074C10.5451 11.075 11.0819 11.01 11.0819 11.01C11.6157 10.9448 11.5525 10.1325 11.0186 10.1649C11.0186 10.1649 9.41415 10.2952 8.37817 10.2952C8.19244 10.2952 7.97326 10.2904 7.74023 10.2827C9.51198 7.49879 12.5569 5.66028 16.0182 5.66028C18.5974 5.66028 20.946 6.68109 22.7085 8.35294C22.666 8.35016 22.6241 8.3446 22.5802 8.3446C21.6069 8.3446 20.9164 9.22212 20.9164 10.1649C20.9164 11.01 21.3874 11.7249 21.8896 12.5703C22.2663 13.2533 22.7063 14.1307 22.7063 15.3984C22.7063 16.2767 22.4549 17.3812 21.9525 18.7142L20.9641 22.1321L17.3837 11.1074ZM16.0214 26.173C15.049 26.173 14.1103 26.025 13.2227 25.7552L16.1955 16.8134L19.2406 25.45C19.2606 25.5004 19.2851 25.5469 19.3116 25.5912C18.2818 25.9661 17.1752 26.173 16.0214 26.173ZM6.11133 15.9181C6.11133 14.4311 6.41948 13.0194 6.96938 11.7441L11.6952 25.1481C8.38985 23.4859 6.11133 19.9778 6.11133 15.9181ZM16.0193 4.50977C9.9434 4.50977 5 9.62675 5 15.9165C5 22.2067 9.9434 27.3242 16.0193 27.3242C22.0953 27.3242 27.0388 22.2067 27.0388 15.9165C27.0388 9.62675 22.0953 4.50977 16.0193 4.50977Z" fill="white"/>
</svg>
