<svg width="16" height="16" viewBox="0 0 16 16" fill="none" xmlns="http://www.w3.org/2000/svg">
    <path fill-rule="evenodd" clip-rule="evenodd"
          d="M12.8145 6.7056C13.1044 6.99555 13.0466 7.48042 12.6966 7.69404L10.545 9.00716C10.3966 9.09772 10.2802 9.23243 10.2122 9.39241L8.92265 12.4254C8.74703 12.8385 8.20935 12.9428 7.89198 12.6254L5.7925 10.5259L3.31763 13.0008L2.61052 12.2937L5.08539 9.81884L2.9859 7.71935C2.66852 7.40197 2.77287 6.8643 3.18593 6.68868L6.21891 5.39912C6.3789 5.33109 6.51361 5.21474 6.60417 5.06635L7.91729 2.91477C8.13091 2.56475 8.61578 2.50692 8.90573 2.79688L12.8145 6.7056ZM10.024 8.15357L11.7778 7.08321L8.52812 3.83348L7.45776 5.5873C7.25852 5.91376 6.96216 6.16974 6.61019 6.31939L4.07715 7.39639L8.21494 11.5342L9.29194 9.00113C9.44159 8.64917 9.69757 8.35281 10.024 8.15357Z"
          fill="#0675C4"/>
    <path d="M3.5 7.5L8 12L10 8.5L12 7L11 5.5L8.5 3.5L6.5 6L3.5 7.5Z" fill="#0675C4"/>
</svg>
