<svg width="24" height="24" viewBox="0 0 24 24" fill="none" xmlns="http://www.w3.org/2000/svg">
<path d="M8.45451 21.2069L16.4545 3.7069L15.545 3.29114L13.668 7.39707C13.1433 7.30252 12.5874 7.25 12 7.25C9.0024 7.25 6.8265 8.61759 5.42023 9.9569C4.71772 10.626 4.20021 11.2938 3.8573 11.7956C3.68547 12.0471 3.55641 12.2584 3.46896 12.4096C3.4252 12.4852 3.39178 12.5459 3.36854 12.5892C3.35692 12.6108 3.34784 12.6282 3.34128 12.6408L3.33333 12.6563L3.33077 12.6614L3.32947 12.664C3.32947 12.664 3.32915 12.6646 3.99997 13C4.67079 13.3354 4.67053 13.3359 4.67053 13.3359L4.67334 13.3305C4.67658 13.3242 4.6822 13.3135 4.69024 13.2985C4.70631 13.2686 4.73196 13.2218 4.76731 13.1608C4.83806 13.0385 4.94728 12.8592 5.09577 12.6419C5.39349 12.2062 5.84472 11.624 6.45471 11.0431C7.67344 9.88241 9.49755 8.75 12 8.75C12.3534 8.75 12.6934 8.77259 13.02 8.81467L12.8838 9.11255C12.6015 9.03909 12.3053 9 12 9C10.067 9 8.49999 10.567 8.49999 12.5C8.49999 13.6967 9.10057 14.7531 10.0167 15.3843L7.54504 20.7911L8.45451 21.2069Z" fill="#00101C"/>
<path d="M15.7169 9.69536C16.4333 10.0877 17.0411 10.563 17.5452 11.0431C18.1552 11.624 18.6065 12.2062 18.9042 12.6419C19.0527 12.8592 19.1619 13.0385 19.2326 13.1608C19.268 13.2218 19.2936 13.2686 19.3097 13.2985L19.3212 13.3202L19.3266 13.3305L19.3294 13.3359C19.3294 13.3359 19.3291 13.3354 20 13C20.6708 12.6646 20.6701 12.6632 20.6701 12.6632L20.6692 12.6614L20.6666 12.6563L20.6587 12.6408C20.6521 12.6282 20.643 12.6108 20.6314 12.5892C20.6082 12.5459 20.5747 12.4852 20.531 12.4096C20.4435 12.2584 20.3145 12.0471 20.1426 11.7956C19.7997 11.2938 19.2822 10.626 18.5797 9.9569C17.9766 9.38255 17.232 8.80299 16.3418 8.32833L15.7169 9.69536Z" fill="#00101C"/>
<path d="M12.8865 15.8868C14.3902 15.4942 15.5 14.1267 15.5 12.5C15.5 11.9453 15.3709 11.4207 15.1412 10.9546L12.8865 15.8868Z" fill="#00101C"/>
</svg>
