<svg width="24" height="24" viewBox="0 0 24 24" fill="none" xmlns="http://www.w3.org/2000/svg">
<path fill-rule="evenodd" clip-rule="evenodd" d="M4.19482 10.0582C3.75989 10.4931 3.84664 11.2204 4.37167 11.5408L7.59904 13.5105C7.82162 13.6463 7.99615 13.8484 8.09819 14.0884L10.0325 18.6379C10.296 19.2574 11.1025 19.414 11.5785 18.9379L14.7278 15.7887L18.4401 19.501L19.5007 18.4403L15.7884 14.728L18.9377 11.5788C19.4137 11.1027 19.2572 10.2962 18.6376 10.0328L14.0881 8.09843C13.8482 7.9964 13.6461 7.82187 13.5102 7.59928L11.5406 4.37192C11.2201 3.84689 10.4928 3.76014 10.0579 4.19507L4.19482 10.0582ZM8.38046 12.2301L5.74974 10.6246L10.6243 5.74998L12.2299 8.3807C12.5287 8.8704 12.9733 9.25437 13.5012 9.47884L17.3008 11.0943L11.0941 17.301L9.4786 13.5015C9.25412 12.9735 8.87016 12.529 8.38046 12.2301Z" fill="#2C3338"/>
</svg>
