<svg width="24" height="24" viewBox="0 0 24 24" fill="none" xmlns="http://www.w3.org/2000/svg">
    <path fill-rule="evenodd" clip-rule="evenodd"
          d="M18 12.0713C18 8.75758 15.3137 6.07129 12 6.07129C8.68629 6.07129 6 8.75758 6 12.0713C6 15.385 8.68629 18.0713 12 18.0713C15.3137 18.0713 18 15.385 18 12.0713ZM15 12.0713C15 10.4144 13.6569 9.07129 12 9.07129C10.3431 9.07129 9 10.4144 9 12.0713C9 13.7281 10.3431 15.0713 12 15.0713C13.6569 15.0713 15 13.7281 15 12.0713Z"
          fill="#50575E"/>
    <path fill-rule="evenodd" clip-rule="evenodd"
          d="M4 12.7242C4 13.213 4.35341 13.6302 4.8356 13.7106L7 14.0713L7 10.0713L4.8356 10.432C4.35341 10.5124 4 10.9296 4 11.4184L4 12.7242ZM20 11.4184C20 10.9296 19.6466 10.5124 19.1644 10.432L17 10.0713L17 14.0713L19.1644 13.7106C19.6466 13.6302 20 13.213 20 12.7242L20 11.4184Z"
          fill="#50575E"/>
    <path fill-rule="evenodd" clip-rule="evenodd"
          d="M7.43471 5.46999C7.01137 5.71441 6.82677 6.22907 6.99827 6.68684L7.76807 8.74163L11.2322 6.74163L9.83756 5.04757C9.52687 4.67017 8.98887 4.5727 8.56552 4.81712L7.43471 5.46999ZM16.5655 18.6735C16.9889 18.4291 17.1735 17.9144 17.002 17.4567L16.2322 15.4019L12.7681 17.4019L14.1627 19.0959C14.4734 19.4733 15.0114 19.5708 15.4347 19.3264L16.5655 18.6735Z"
          fill="#50575E"/>
    <path fill-rule="evenodd" clip-rule="evenodd"
          d="M8.56529 19.3255C8.98863 19.5699 9.52664 19.4724 9.83733 19.095L11.2319 17.4009L7.76783 15.4009L6.99804 17.4557C6.82654 17.9135 7.01113 18.4282 7.43448 18.6726L8.56529 19.3255ZM15.4345 4.81618C15.0111 4.57176 14.4731 4.66923 14.1624 5.04663L12.7678 6.74069L16.2319 8.74069L17.0017 6.6859C17.1732 6.22813 16.9886 5.71347 16.5653 5.46905L15.4345 4.81618Z"
          fill="#50575E"/>
</svg>