<svg width="24" height="24" viewBox="0 0 24 24" fill="none" xmlns="http://www.w3.org/2000/svg">
<circle cx="12" cy="12" r="12" fill="#F6F7F7"/>
<circle cx="12" cy="12" r="10.8" fill="#101517"/>
<path d="M12.0007 4.8C10.0453 4.8 9.7999 4.80855 9.03189 4.8435C8.26538 4.8786 7.74218 4.99996 7.28437 5.17801C6.81082 5.36191 6.40912 5.60791 6.00891 6.00827C5.60841 6.40847 5.3624 6.81017 5.1779 7.28358C4.9994 7.74153 4.8779 8.26489 4.8434 9.0311C4.80905 9.79911 4.80005 10.0447 4.80005 12.0001C4.80005 13.9555 4.80875 14.2002 4.84355 14.9682C4.8788 15.7347 5.00015 16.2579 5.17805 16.7157C5.3621 17.1892 5.60811 17.5909 6.00846 17.9911C6.40852 18.3916 6.81022 18.6382 7.28347 18.8222C7.74158 19.0002 8.26493 19.1216 9.03129 19.1567C9.7993 19.1916 10.0446 19.2002 11.9998 19.2002C13.9554 19.2002 14.2 19.1916 14.9681 19.1567C15.7346 19.1216 16.2584 19.0002 16.7165 18.8222C17.1899 18.6382 17.591 18.3916 17.991 17.9911C18.3915 17.5909 18.6375 17.1892 18.822 16.7158C18.999 16.2579 19.1205 15.7345 19.1565 14.9683C19.191 14.2003 19.2 13.9555 19.2 12.0001C19.2 10.0447 19.191 9.79926 19.1565 9.03125C19.1205 8.26474 18.999 7.74153 18.822 7.28373C18.6375 6.81017 18.3915 6.40847 17.991 6.00827C17.5905 5.60776 17.19 5.36176 16.716 5.17801C16.257 4.99996 15.7335 4.8786 14.967 4.8435C14.199 4.80855 13.9545 4.8 11.9985 4.8H12.0007ZM11.3548 6.09752C11.5465 6.09722 11.7604 6.09752 12.0007 6.09752C13.9231 6.09752 14.151 6.10442 14.9102 6.13892C15.6122 6.17102 15.9932 6.28832 16.247 6.38687C16.583 6.51737 16.8225 6.67337 17.0744 6.92538C17.3264 7.17738 17.4824 7.41738 17.6132 7.75338C17.7117 8.00689 17.8292 8.38789 17.8611 9.0899C17.8956 9.84891 17.9031 10.0769 17.9031 11.9984C17.9031 13.9199 17.8956 14.148 17.8611 14.907C17.829 15.609 17.7117 15.99 17.6132 16.2435C17.4827 16.5795 17.3264 16.8187 17.0744 17.0706C16.8224 17.3226 16.5831 17.4786 16.247 17.6091C15.9935 17.7081 15.6122 17.8251 14.9102 17.8572C14.1511 17.8917 13.9231 17.8992 12.0007 17.8992C10.0782 17.8992 9.8503 17.8917 9.09129 17.8572C8.38929 17.8248 8.00828 17.7075 7.75433 17.6089C7.41833 17.4784 7.17832 17.3224 6.92632 17.0704C6.67432 16.8184 6.51832 16.579 6.38752 16.2429C6.28896 15.9894 6.17151 15.6084 6.13956 14.9064C6.10506 14.1474 6.09816 13.9193 6.09816 11.9966C6.09816 10.0739 6.10506 9.84711 6.13956 9.0881C6.17166 8.38609 6.28896 8.00509 6.38752 7.75128C6.51802 7.41528 6.67432 7.17528 6.92632 6.92327C7.17832 6.67127 7.41833 6.51527 7.75433 6.38447C8.00813 6.28547 8.38929 6.16847 9.09129 6.13622C9.7555 6.10622 10.0129 6.09722 11.3548 6.09572V6.09752ZM15.8441 7.29303C15.3671 7.29303 14.9801 7.67958 14.9801 8.15674C14.9801 8.63374 15.3671 9.02075 15.8441 9.02075C16.3211 9.02075 16.7081 8.63374 16.7081 8.15674C16.7081 7.67973 16.3211 7.29273 15.8441 7.29273V7.29303ZM12.0007 8.30254C9.95875 8.30254 8.30319 9.95811 8.30319 12.0001C8.30319 14.042 9.95875 15.6969 12.0007 15.6969C14.0427 15.6969 15.6977 14.042 15.6977 12.0001C15.6977 9.95811 14.0425 8.30254 12.0006 8.30254H12.0007ZM12.0007 9.60005C13.3261 9.60005 14.4007 10.6745 14.4007 12.0001C14.4007 13.3255 13.3261 14.4001 12.0007 14.4001C10.6752 14.4001 9.6007 13.3255 9.6007 12.0001C9.6007 10.6745 10.6752 9.60005 12.0007 9.60005Z" fill="white"/>
</svg>
