<svg width="24" height="24" viewBox="0 0 24 24" fill="none" xmlns="http://www.w3.org/2000/svg">
<path d="M12 4V2.25L9 4.75L12 7.25V5.5C12 5.5 12 5.5 12 5.5C15.5899 5.5 18.5 8.41015 18.5 12C18.5 14.892 16.6113 17.3429 14 18.1865V18.3749L13.9468 18.2019C13.5821 18.3169 13.2144 18.3978 12.8473 18.4463L13.0439 19.9334C13.3633 19.8912 13.6825 19.8292 14 19.7468V19.748C17.4505 18.8599 20 15.7277 20 12C20 7.58172 16.4183 4 12 4C12 4 12 4 12 4Z" fill="black"/>
<path d="M4.06684 10.9555C4.2512 9.56507 4.79906 8.24244 5.65186 7.12891L6.84274 8.04094C6.14946 8.94618 5.7037 10.0223 5.55382 11.1527L4.06684 10.9555Z" fill="black"/>
<path d="M5.55321 12.8474L4.06616 13.0441C4.15583 13.722 4.33456 14.3995 4.60868 15.0613C4.88281 15.7231 5.2355 16.3286 5.65147 16.8713L6.84205 15.9589C6.50492 15.519 6.21813 15.0272 5.9945 14.4873C5.77087 13.9474 5.62588 13.3968 5.55321 12.8474Z" fill="black"/>
<path d="M8.04083 17.1568L7.12879 18.3477C8.24233 19.2005 9.56496 19.7484 10.9554 19.9327L11.1525 18.4457C10.0222 18.2959 8.94607 17.8501 8.04083 17.1568Z" fill="black"/>
</svg>
