<svg width="16" height="16" viewBox="0 0 16 16" fill="none" xmlns="http://www.w3.org/2000/svg">
<path d="M7.9998 0.000354767C3.58165 0.000354767 0 3.58201 0 8.00016C0 12.2905 3.37761 15.792 7.61881 15.9906C7.74538 15.9966 7.87214 16 7.99992 16C10.0481 16 11.916 15.2299 13.3313 13.9642C12.3936 14.5861 11.2973 14.9439 10.1256 14.9439C8.2205 14.9439 6.51431 13.9988 5.3668 12.5084C4.48221 11.4642 3.90928 9.9207 3.87025 8.18847V7.81173C3.90926 6.07955 4.48219 4.53572 5.36658 3.49179C6.51425 2.00142 8.22039 1.05632 10.1254 1.05632C11.2973 1.05632 12.3939 1.41415 13.3317 2.03644C11.9233 0.776529 10.0667 0.00795937 8.02989 0.000395775C8.01974 0.000395775 8.00979 0 7.99964 0L7.9998 0.000354767Z" fill="url(#paint0_linear_4709_52245)"/>
<path d="M5.3667 3.49214C6.10084 2.62547 7.04893 2.10285 8.08476 2.10285C10.4137 2.10285 12.3014 4.7433 12.3014 8.0004C12.3014 11.2575 10.4136 13.8979 8.08476 13.8979C7.04893 13.8979 6.10084 13.3756 5.3669 12.5089C6.51437 13.9992 8.22042 14.9443 10.1257 14.9443C11.2974 14.9443 12.3938 14.5865 13.3314 13.9646C14.9689 12.4997 15.9999 10.3705 15.9999 8.00046C15.9999 5.63066 14.9691 3.50159 13.332 2.03687C12.3941 1.41458 11.2975 1.05675 10.1257 1.05675C8.22062 1.05675 6.51443 2.00185 5.36692 3.49222" fill="url(#paint1_linear_4709_52245)"/>
<defs>
<linearGradient id="paint0_linear_4709_52245" x1="6.66603" y1="0.261127" x2="6.66603" y2="15.7674" gradientUnits="userSpaceOnUse">
<stop stop-color="#FF1B2D"/>
<stop offset="0.3" stop-color="#FF1B2D"/>
<stop offset="0.614" stop-color="#FF1B2D"/>
<stop offset="1" stop-color="#A70014"/>
</linearGradient>
<linearGradient id="paint1_linear_4709_52245" x1="10.6832" y1="1.17511" x2="10.6832" y2="14.8896" gradientUnits="userSpaceOnUse">
<stop stop-color="#9C0000"/>
<stop offset="0.7" stop-color="#FF4B4B"/>
<stop offset="1" stop-color="#FF4B4B"/>
</linearGradient>
</defs>
</svg>
