<svg width="24" height="24" viewBox="0 0 24 24" fill="none" xmlns="http://www.w3.org/2000/svg">
<path fill-rule="evenodd" clip-rule="evenodd" d="M17.3299 13.75L14.4395 17.0017L15.5606 17.9983L20.0304 12.9697L15.5304 8.46967L14.4697 9.53033L17.1894 12.25H8.00249C7.40089 12.25 7.00912 12.0479 6.72224 11.7517C6.41398 11.4334 6.18444 10.9599 6.027 10.3693C5.74102 9.29652 5.74736 8.07258 5.75157 7.26061C5.75205 7.16807 5.7525 7.08089 5.75249 6.99989L4.25249 7.00011C4.2525 7.07276 4.25192 7.15497 4.25128 7.24557C4.24567 8.03818 4.23552 9.47242 4.57762 10.7557C4.77007 11.4776 5.09045 12.2229 5.64472 12.7952C6.22037 13.3896 7.00374 13.75 8.00249 13.75H17.3299Z" fill="#00101C"/>
</svg>
