<svg width="24" height="24" viewBox="0 0 24 24" fill="none" xmlns="http://www.w3.org/2000/svg">
<g clip-path="url(#clip0_4824_430)">
<circle cx="12" cy="12" r="12" fill="#F6F7F7"/>
<path d="M22.8 12.0654C22.8 6.06422 17.9652 1.1999 12 1.1999C6.03475 1.1999 1.19995 6.06422 1.19995 12.0654C1.19995 17.4899 5.14843 21.9849 10.3123 22.7999V15.2068H7.57051V12.0647H10.3123V9.67142C10.3123 6.94838 11.9244 5.44358 14.3918 5.44358C15.5726 5.44358 16.8096 5.65598 16.8096 5.65598V8.33006H15.4466C14.1052 8.33006 13.6876 9.16814 13.6876 10.0278V12.0654H16.6828L16.204 15.2061H13.6876V22.7999C18.8515 21.9849 22.8 17.4899 22.8 12.0654Z" fill="#101517"/>
</g>
<defs>
<clipPath id="clip0_4824_430">
<rect width="24" height="24" fill="white"/>
</clipPath>
</defs>
</svg>
