<svg width="16" height="16" viewBox="0 0 16 16" fill="none" xmlns="http://www.w3.org/2000/svg">
<path d="M15 8C15 8.91925 14.8189 9.8295 14.4672 10.6788C14.1154 11.5281 13.5998 12.2997 12.9497 12.9497C12.2997 13.5998 11.5281 14.1154 10.6788 14.4672C9.8295 14.8189 8.91925 15 7.99999 15C6.14348 15 4.363 14.2625 3.05025 12.9497C1.7375 11.637 1 9.85652 1 8C1 6.14349 1.7375 4.36301 3.05025 3.05025C4.363 1.7375 6.14348 1 7.99999 1C8.91925 1 9.8295 1.18106 10.6788 1.53284C11.5281 1.88463 12.2997 2.40024 12.9497 3.05025C13.5998 3.70026 14.1154 4.47194 14.4672 5.32122C14.8189 6.17049 15 7.08075 15 8Z" fill="url(#paint0_linear_4709_52244)" stroke="#CDCDCD" stroke-width="0.351543" stroke-linecap="round" stroke-linejoin="round"/>
<path d="M14.4514 7.99983C14.4514 9.71087 13.7717 11.3518 12.5618 12.5617C11.3519 13.7716 9.71099 14.4513 7.99995 14.4513C6.28891 14.4513 4.64795 13.7716 3.43806 12.5617C2.22817 11.3518 1.54846 9.71087 1.54846 7.99983C1.54846 6.28879 2.22817 4.64782 3.43806 3.43794C4.64795 2.22805 6.28891 1.54834 7.99995 1.54834C9.71099 1.54834 11.3519 2.22805 12.5618 3.43794C13.7717 4.64782 14.4514 6.28879 14.4514 7.99983Z" fill="url(#paint1_radial_4709_52244)"/>
<path d="M8 1.88477C7.94789 1.88477 7.90594 1.92671 7.90594 1.97883V3.06377C7.90594 3.11588 7.94789 3.15783 8 3.15783C8.05211 3.15783 8.09406 3.11588 8.09406 3.06377V1.97883C8.09406 1.92671 8.05211 1.88477 8 1.88477ZM7.38466 1.92366C7.37843 1.92299 7.37201 1.92299 7.36553 1.92374C7.3137 1.92914 7.27633 1.97522 7.28175 2.02705L7.32916 2.48095C7.33457 2.53278 7.38065 2.57015 7.43247 2.56473C7.48431 2.55933 7.52168 2.51325 7.51626 2.46142L7.46889 2.00753C7.46415 1.96218 7.42827 1.92789 7.38465 1.92366H7.38466ZM8.61965 1.9241C8.57603 1.92831 8.54015 1.96259 8.53537 2.00793L8.48763 2.46179C8.48218 2.51361 8.51956 2.55973 8.57138 2.56518C8.62321 2.57064 8.66928 2.5333 8.67474 2.48147L8.72248 2.02758C8.72793 1.97576 8.69055 1.92967 8.63873 1.92422C8.63225 1.92355 8.62588 1.92355 8.61964 1.92411L8.61965 1.9241ZM6.75255 2.01532C6.7463 2.01537 6.73993 2.01599 6.73356 2.01733C6.68258 2.02813 6.65022 2.07787 6.66102 2.12885L6.88571 3.19025C6.8965 3.24123 6.94624 3.27359 6.99722 3.2628C7.0482 3.252 7.08056 3.2023 7.06977 3.15132L6.84507 2.08988C6.83562 2.04527 6.79638 2.01492 6.75256 2.01526L6.75255 2.01532ZM9.25172 2.01622C9.2079 2.01577 9.16863 2.04615 9.15916 2.09075L8.93369 3.15203C8.92286 3.203 8.95519 3.25275 9.00616 3.26358C9.05713 3.27442 9.10688 3.24208 9.11771 3.19112L9.34318 2.12984C9.35401 2.07887 9.32168 2.02911 9.27072 2.01828C9.26435 2.01694 9.25798 2.01627 9.25172 2.01627L9.25172 2.01622ZM6.14931 2.18541C6.13713 2.1843 6.12455 2.18564 6.11216 2.18975C6.0626 2.20586 6.03565 2.25869 6.05176 2.30825L6.19279 2.74229C6.2089 2.79185 6.26176 2.8188 6.31132 2.8027C6.36088 2.78659 6.38779 2.73372 6.37169 2.68416L6.23066 2.25012C6.21859 2.21294 6.18584 2.18851 6.14931 2.18541V2.18541ZM9.85155 2.18564C9.81502 2.18874 9.78228 2.21318 9.7702 2.25035L9.62909 2.68435C9.61298 2.73391 9.6399 2.78678 9.68945 2.80289C9.73901 2.819 9.79188 2.79207 9.80799 2.74252L9.9491 2.30848C9.96521 2.25892 9.93829 2.20605 9.88874 2.18994C9.87636 2.18592 9.86373 2.1846 9.85155 2.18563V2.18564ZM5.55276 2.40371C5.54054 2.40394 5.52817 2.40662 5.51627 2.41192C5.46867 2.43308 5.44736 2.48844 5.46853 2.53606L5.90919 3.52747C5.93035 3.57509 5.98571 3.59638 6.03333 3.57521C6.08092 3.55405 6.10227 3.49869 6.08111 3.45107L5.6404 2.45966C5.62454 2.42394 5.58942 2.40301 5.55276 2.40372V2.40371ZM10.4548 2.40704C10.4182 2.40637 10.383 2.42718 10.3671 2.46286L9.92511 3.45367C9.90388 3.50126 9.9251 3.55666 9.97269 3.57789C10.0203 3.59912 10.0757 3.5779 10.0969 3.53032L10.5389 2.53951C10.5601 2.49192 10.5389 2.43652 10.4913 2.41529C10.4794 2.40999 10.4671 2.40731 10.4548 2.40704V2.40704ZM4.99904 2.69669C4.98098 2.69535 4.96238 2.69937 4.94546 2.70916C4.90033 2.73522 4.88498 2.79252 4.91103 2.83764L5.13922 3.23288C5.16527 3.27801 5.22257 3.29336 5.2677 3.2673C5.31283 3.24125 5.32818 3.18395 5.30213 3.13882L5.07394 2.74359C5.05765 2.71538 5.02914 2.6988 4.99904 2.6967V2.69669ZM11.001 2.69669C10.9709 2.6987 10.9424 2.71537 10.9261 2.74358L10.6979 3.13881C10.6718 3.18394 10.6872 3.24124 10.7323 3.2673C10.7775 3.29335 10.8348 3.278 10.8608 3.23287L11.089 2.83764C11.1151 2.79251 11.0997 2.73521 11.0546 2.70915C11.0377 2.69939 11.019 2.69543 11.001 2.69668V2.69669ZM4.46136 3.03205C4.44326 3.03272 4.42513 3.03853 4.40931 3.04999C4.36714 3.08059 4.35781 3.13918 4.38842 3.18136L5.02548 4.05955C5.05608 4.10174 5.11471 4.11106 5.15689 4.08047C5.19907 4.04987 5.20839 3.99128 5.17778 3.9491L4.54068 3.07091C4.52155 3.04454 4.49151 3.03103 4.46136 3.03206V3.03205ZM11.5454 3.03683C11.5152 3.03571 11.4852 3.04923 11.466 3.07556L10.8277 3.9529C10.7971 3.99504 10.8063 4.05365 10.8485 4.08431C10.8906 4.11496 10.9492 4.10574 10.9799 4.06362L11.6181 3.18627C11.6488 3.14413 11.6395 3.08552 11.5974 3.05487C11.5816 3.04338 11.5635 3.03748 11.5454 3.03683L11.5454 3.03683ZM3.98075 3.43511C3.95674 3.43377 3.93224 3.44179 3.91287 3.45922C3.87414 3.49409 3.87103 3.55332 3.9059 3.59205L4.21126 3.93127C4.24612 3.97 4.30536 3.97311 4.34409 3.93824C4.38282 3.90337 4.38593 3.8441 4.35106 3.80537L4.04574 3.4662C4.02831 3.44682 4.00476 3.43636 3.98075 3.4351V3.43511ZM12.0199 3.43578C11.9959 3.43712 11.9724 3.44751 11.955 3.46687L11.6496 3.80601C11.6147 3.84473 11.6178 3.90401 11.6565 3.93888C11.6953 3.97375 11.7545 3.97062 11.7894 3.9319L12.0948 3.59277C12.1296 3.55405 12.1265 3.49477 12.0878 3.4599C12.0684 3.44247 12.044 3.43453 12.02 3.43579L12.0199 3.43578ZM3.52012 3.87758C3.49611 3.87892 3.4726 3.88931 3.45516 3.90867C3.4203 3.9474 3.42342 4.00664 3.46214 4.0415L4.26848 4.76738C4.30721 4.80225 4.36644 4.79913 4.40131 4.76041C4.43617 4.72168 4.4331 4.66245 4.39436 4.62758L3.58797 3.9017C3.5686 3.88427 3.54411 3.87632 3.52009 3.87759L3.52012 3.87758ZM12.4828 3.88075C12.4588 3.87941 12.4343 3.88741 12.4149 3.90482L11.6081 4.63014C11.5693 4.66497 11.5661 4.72421 11.601 4.76297C11.6358 4.80172 11.6951 4.80487 11.7338 4.77003L12.5407 4.04471C12.5795 4.00987 12.5826 3.95064 12.5478 3.91188C12.5303 3.89251 12.5068 3.88203 12.4828 3.88075H12.4828ZM3.13706 4.37013C3.10691 4.36901 3.07684 4.3826 3.0577 4.40894C3.02707 4.45109 3.03636 4.50967 3.07852 4.5403L3.44774 4.80856C3.4899 4.83919 3.54847 4.82994 3.5791 4.78777C3.60973 4.74562 3.60047 4.687 3.55832 4.65637L3.18911 4.38811C3.17331 4.37663 3.15516 4.37077 3.13707 4.37012L3.13706 4.37013ZM12.8655 4.37355C12.8474 4.37422 12.8293 4.38 12.8135 4.39149L12.4441 4.6595C12.4019 4.6901 12.3926 4.74873 12.4232 4.79091C12.4538 4.83309 12.5124 4.84237 12.5545 4.81178L12.924 4.54377C12.9661 4.51317 12.9754 4.45458 12.9448 4.4124C12.9257 4.38604 12.8957 4.37252 12.8655 4.37355V4.37355ZM2.77909 4.89552C2.74899 4.89753 2.72052 4.9142 2.70423 4.94241C2.67818 4.98754 2.69353 5.04484 2.73866 5.07089L3.67824 5.61336C3.72336 5.63942 3.78066 5.62407 3.80672 5.57894C3.83277 5.53381 3.81742 5.47651 3.77229 5.45046L2.83272 4.90798C2.8158 4.89822 2.79715 4.89426 2.77909 4.89551V4.89552ZM13.2209 4.89552C13.2029 4.89418 13.1842 4.8982 13.1673 4.90799L12.2277 5.45046C12.1826 5.47652 12.1672 5.53382 12.1933 5.57895C12.2193 5.62408 12.2766 5.63943 12.3218 5.61337L13.2614 5.0709C13.3065 5.04484 13.3219 4.98754 13.2958 4.94242C13.2795 4.91421 13.251 4.89763 13.2209 4.89553V4.89552ZM2.50844 5.45553C2.47179 5.45464 2.43664 5.47562 2.42072 5.51131C2.39949 5.5589 2.4207 5.6143 2.4683 5.63553L2.88512 5.82145C2.93272 5.84268 2.98812 5.82147 3.00935 5.77388C3.03058 5.72629 3.00932 5.67088 2.96173 5.64966L2.54494 5.46373C2.53305 5.45841 2.52066 5.45578 2.50844 5.45553ZM13.4934 5.4594C13.4812 5.45962 13.4688 5.4623 13.4569 5.4676L13.0399 5.6532C12.9923 5.67441 12.971 5.72977 12.9922 5.77738C13.0134 5.82499 13.0689 5.84627 13.1165 5.82508L13.5334 5.63944C13.581 5.61825 13.6022 5.56286 13.581 5.51526C13.5651 5.47955 13.53 5.45867 13.4934 5.4594ZM2.26723 6.04084C2.23069 6.0439 2.19794 6.06831 2.18583 6.10547C2.1697 6.15502 2.19656 6.2079 2.24612 6.22405L3.27768 6.56018C3.32723 6.57631 3.38012 6.54943 3.39626 6.49989C3.4124 6.45035 3.38554 6.39746 3.33598 6.38131L2.30441 6.04519C2.29203 6.04114 2.2794 6.03982 2.26723 6.04085V6.04084ZM13.7342 6.04487C13.722 6.04375 13.7094 6.04509 13.697 6.0492L12.6652 6.3846C12.6156 6.40071 12.5887 6.45358 12.6048 6.50314C12.621 6.55269 12.6738 6.57961 12.7234 6.5635L13.7551 6.2281C13.8047 6.21199 13.8317 6.15912 13.8156 6.10957C13.8035 6.0724 13.7707 6.04796 13.7342 6.04486V6.04487ZM2.11694 6.65526C2.07312 6.65481 2.03382 6.68523 2.02435 6.72983C2.01351 6.7808 2.04584 6.83055 2.09681 6.84139L2.54323 6.93626C2.59421 6.94709 2.64395 6.91476 2.65479 6.86379C2.66563 6.81282 2.63329 6.76307 2.58233 6.75224L2.13594 6.65737C2.12957 6.65603 2.1232 6.65536 2.11695 6.65536L2.11694 6.65526ZM13.8833 6.65615C13.877 6.6562 13.8707 6.65705 13.8643 6.65816L13.4179 6.75299C13.3669 6.76383 13.3346 6.81354 13.3454 6.86451C13.3563 6.91548 13.406 6.94784 13.457 6.93701L13.9034 6.84218C13.9543 6.83134 13.9867 6.7816 13.9759 6.73062C13.9664 6.68602 13.9271 6.65568 13.8833 6.65605L13.8833 6.65615ZM2.00319 7.27328C1.95957 7.27746 1.92367 7.31168 1.91888 7.35703C1.91341 7.40885 1.95068 7.45499 2.0025 7.46046L3.08145 7.57454C3.13327 7.58001 3.17941 7.54269 3.18488 7.49087C3.19036 7.43905 3.15304 7.39291 3.10122 7.38743L2.02228 7.27336C2.0158 7.27269 2.00943 7.27269 2.00319 7.27328L2.00319 7.27328ZM13.9978 7.28139C13.9916 7.28072 13.9852 7.28072 13.9787 7.28147L12.8996 7.39408C12.8478 7.39949 12.8104 7.44557 12.8158 7.4974C12.8213 7.54923 12.8673 7.5866 12.9192 7.58119L13.9982 7.46857C14.0501 7.46317 14.0874 7.41709 14.082 7.36526C14.0773 7.31991 14.0414 7.28563 13.9978 7.28139L13.9978 7.28139ZM1.98493 7.90591C1.93282 7.90591 1.89087 7.94786 1.89087 7.99997C1.89087 8.05208 1.93282 8.09403 1.98493 8.09403H2.4413C2.49341 8.09403 2.5354 8.05208 2.5354 7.99997C2.5354 7.94786 2.49341 7.90591 2.4413 7.90591H1.98493ZM13.5587 7.90591C13.5066 7.90591 13.4646 7.94786 13.4646 7.99997C13.4646 8.05208 13.5066 8.09403 13.5587 8.09403H14.0151C14.0672 8.09403 14.1091 8.05208 14.1091 7.99997C14.1091 7.94786 14.0672 7.90591 14.0151 7.90591H13.5587ZM3.09996 8.41867C3.09372 8.418 3.08735 8.418 3.08087 8.41875L2.00177 8.53136C1.94994 8.53677 1.91258 8.58284 1.91798 8.63467C1.92339 8.6865 1.96947 8.72387 2.0213 8.71846L3.1004 8.60585C3.15223 8.60044 3.18959 8.55436 3.18419 8.50253C3.17945 8.45718 3.14357 8.4229 3.09995 8.41867L3.09996 8.41867ZM12.8995 8.42533C12.8559 8.42951 12.82 8.46373 12.8152 8.50908C12.8097 8.5609 12.847 8.60704 12.8988 8.61251L13.9777 8.72659C14.0296 8.73206 14.0757 8.69474 14.0812 8.64292C14.0866 8.5911 14.0493 8.54496 13.9975 8.53948L12.9186 8.42541C12.9121 8.42474 12.9057 8.42474 12.8995 8.42533L12.8995 8.42533ZM2.56207 9.06077C2.55581 9.06082 2.54944 9.06144 2.54308 9.06278L2.09665 9.1576C2.04567 9.16844 2.01336 9.21819 2.02419 9.26916C2.03502 9.32014 2.08477 9.35245 2.13574 9.34162L2.58217 9.24683C2.63314 9.236 2.66546 9.18625 2.65463 9.13528C2.64516 9.09068 2.60589 9.06034 2.56207 9.06071L2.56207 9.06077ZM13.4378 9.06166C13.394 9.06121 13.3547 9.09159 13.3453 9.13619C13.3344 9.18716 13.3667 9.23691 13.4177 9.24775L13.8641 9.34262C13.9151 9.35346 13.9648 9.32117 13.9757 9.2702C13.9865 9.21922 13.9542 9.16943 13.9032 9.1586L13.4568 9.06373C13.4504 9.06239 13.4441 9.06172 13.4378 9.06172L13.4378 9.06166ZM3.31381 9.43213C3.30163 9.43101 3.28906 9.43235 3.27667 9.43647L2.24486 9.77186C2.1953 9.78797 2.16838 9.84084 2.18449 9.8904C2.20061 9.93996 2.25347 9.96687 2.30303 9.95077L3.3348 9.61537C3.38436 9.59926 3.41132 9.54639 3.39521 9.49683C3.38312 9.45966 3.35034 9.43522 3.31381 9.43212V9.43213ZM12.6852 9.43546C12.6486 9.43852 12.6159 9.46293 12.6038 9.50009C12.5877 9.54964 12.6145 9.60252 12.6641 9.61867L13.6956 9.9548C13.7452 9.97093 13.7981 9.94405 13.8142 9.89451C13.8304 9.84497 13.8035 9.79208 13.7539 9.77593L12.7224 9.4398C12.71 9.43576 12.6974 9.43444 12.6852 9.43547V9.43546ZM2.92008 10.1667C2.90786 10.167 2.89548 10.1696 2.88358 10.1749L2.46663 10.3605C2.41902 10.3817 2.39778 10.4371 2.41897 10.4847C2.44018 10.5323 2.49555 10.5536 2.54315 10.5324L2.96011 10.3468C3.00771 10.3256 3.02896 10.2702 3.00777 10.2226C2.99188 10.1869 2.95673 10.166 2.92008 10.1667V10.1667ZM13.0784 10.1703C13.0418 10.1694 13.0066 10.1904 12.9907 10.2261C12.9695 10.2737 12.9907 10.3291 13.0383 10.3503L13.4551 10.5362C13.5027 10.5575 13.5581 10.5363 13.5793 10.4887C13.6005 10.4411 13.5793 10.3857 13.5317 10.3644L13.1149 10.1785C13.103 10.1732 13.0906 10.1706 13.0784 10.1703V10.1703ZM3.73186 10.3741C3.71381 10.3728 3.69516 10.3768 3.67824 10.3866L2.73866 10.9291C2.69353 10.9551 2.67818 11.0124 2.70423 11.0576C2.73029 11.1027 2.78759 11.1181 2.83272 11.092L3.77229 10.5496C3.81742 10.5235 3.83277 10.4662 3.80672 10.421C3.79043 10.3928 3.76196 10.3763 3.73186 10.3742V10.3741ZM12.2682 10.3741C12.2381 10.3762 12.2096 10.3928 12.1933 10.421C12.1672 10.4662 12.1826 10.5235 12.2277 10.5496L13.1673 11.092C13.2124 11.118 13.2698 11.1027 13.2958 11.0576C13.3219 11.0124 13.3065 10.9551 13.2614 10.9291L12.3218 10.3866C12.3049 10.3768 12.2862 10.3729 12.2682 10.3741V10.3741ZM3.49751 11.1702C3.4794 11.1709 3.46128 11.1767 3.44546 11.1882L3.07609 11.4562C3.03391 11.4868 3.02458 11.5454 3.05517 11.5876C3.08577 11.6298 3.14436 11.6391 3.18654 11.6085L3.55595 11.3405C3.59813 11.3099 3.60746 11.2513 3.57687 11.2091C3.55774 11.1827 3.52766 11.1692 3.4975 11.1702L3.49751 11.1702ZM12.5003 11.1734C12.4701 11.1723 12.4401 11.1859 12.4209 11.2122C12.3903 11.2544 12.3996 11.313 12.4417 11.3436L12.8109 11.6119C12.8531 11.6425 12.9117 11.6332 12.9423 11.591C12.9729 11.5489 12.9637 11.4903 12.9215 11.4597L12.5523 11.1914C12.5365 11.1799 12.5184 11.174 12.5003 11.1734L12.5003 11.1734ZM4.33409 11.2059C4.31008 11.2045 4.28559 11.2125 4.26622 11.2299L3.45935 11.9553C3.42059 11.9901 3.41745 12.0493 3.45229 12.0881C3.48712 12.1268 3.54636 12.13 3.58511 12.0951L4.39198 11.3698C4.43074 11.335 4.43388 11.2758 4.39904 11.237C4.38164 11.2176 4.3581 11.2071 4.33409 11.2059ZM11.6637 11.2085C11.6397 11.2098 11.6161 11.2202 11.5987 11.2396C11.5638 11.2783 11.5669 11.3375 11.6057 11.3724L12.412 12.0983C12.4507 12.1331 12.51 12.13 12.5449 12.0913C12.5797 12.0526 12.5766 11.9933 12.5379 11.9585L11.7315 11.2326C11.7121 11.2152 11.6877 11.2072 11.6637 11.2085V11.2085ZM5.09956 11.8975C5.0694 11.8964 5.03931 11.9099 5.02015 11.9362L4.38191 12.8136C4.35126 12.8557 4.36048 12.9143 4.40261 12.945C4.44474 12.9757 4.50336 12.9664 4.53401 12.9243L5.17225 12.0469C5.20291 12.0048 5.19368 11.9462 5.15156 11.9155C5.13576 11.904 5.11765 11.8981 5.09956 11.8975ZM10.8952 11.9015C10.8771 11.9021 10.859 11.9079 10.8432 11.9194C10.801 11.95 10.7917 12.0086 10.8223 12.0508L11.4593 12.929C11.4899 12.9711 11.5485 12.9805 11.5907 12.9499C11.6329 12.9193 11.6422 12.8607 11.6116 12.8185L10.9745 11.9403C10.9554 11.914 10.9254 11.9004 10.8952 11.9015L10.8952 11.9015ZM4.27563 12.037C4.25162 12.0383 4.22808 12.0487 4.21064 12.0681L3.90528 12.4072C3.87041 12.4459 3.8735 12.5052 3.91223 12.5401C3.95096 12.5749 4.01019 12.5718 4.04506 12.5331L4.35046 12.1939C4.38533 12.1552 4.3822 12.0959 4.34348 12.0611C4.32411 12.0436 4.29966 12.0357 4.27565 12.037L4.27563 12.037ZM11.7238 12.0374C11.6998 12.0361 11.6753 12.0441 11.656 12.0615C11.6172 12.0964 11.6141 12.1556 11.649 12.1944L11.9543 12.5336C11.9892 12.5723 12.0484 12.5754 12.0871 12.5405C12.1259 12.5057 12.129 12.4464 12.0941 12.4077L11.7888 12.0685C11.7713 12.0491 11.7478 12.0387 11.7238 12.0374L11.7238 12.0374ZM5.99082 12.4136C5.95417 12.4128 5.91906 12.4337 5.90314 12.4694L5.4611 13.4602C5.43987 13.5078 5.46108 13.5632 5.50868 13.5845C5.55626 13.6057 5.61167 13.5845 5.6329 13.5369L6.07494 12.5461C6.09617 12.4985 6.07495 12.4431 6.02736 12.4218C6.01547 12.4165 6.00304 12.4139 5.99082 12.4136ZM10.0032 12.4164C9.99099 12.4166 9.97858 12.4192 9.96668 12.4245C9.91909 12.4457 9.89777 12.5011 9.91894 12.5487L10.3596 13.5401C10.3808 13.5877 10.4362 13.609 10.4838 13.5878C10.5314 13.5667 10.5527 13.5113 10.5315 13.4637L10.0909 12.4723C10.075 12.4366 10.0399 12.4157 10.0032 12.4164V12.4164ZM5.21407 12.72C5.18398 12.722 5.1555 12.7387 5.13922 12.7669L4.91103 13.1621C4.88498 13.2072 4.90033 13.2645 4.94546 13.2906C4.99058 13.3166 5.04788 13.3013 5.07394 13.2562L5.30213 12.8609C5.32818 12.8158 5.31283 12.7585 5.2677 12.7324C5.25078 12.7227 5.23213 12.7187 5.21407 12.72V12.72ZM10.7859 12.72C10.7679 12.7186 10.7493 12.7227 10.7323 12.7325C10.6872 12.7585 10.6719 12.8158 10.6979 12.8609L10.9261 13.2562C10.9522 13.3013 11.0095 13.3167 11.0546 13.2906C11.0997 13.2645 11.1151 13.2072 11.089 13.1621L10.8608 12.7669C10.8445 12.7387 10.816 12.7221 10.7859 12.72V12.72ZM6.97489 12.7342C6.93107 12.7337 6.89181 12.7641 6.88234 12.8087L6.65687 13.87C6.64603 13.9209 6.67837 13.9707 6.72933 13.9815C6.78031 13.9924 6.83006 13.96 6.84089 13.9091L7.06635 12.8478C7.07719 12.7968 7.04486 12.747 6.99389 12.7362C6.98752 12.7349 6.98115 12.7342 6.9749 12.7342L6.97489 12.7342ZM9.02178 12.7348C9.01553 12.7349 9.0092 12.7355 9.00284 12.7368C8.95185 12.7476 8.9195 12.7973 8.93029 12.8483L9.15499 13.9097C9.16578 13.9607 9.21552 13.9931 9.2665 13.9823C9.31748 13.9715 9.34984 13.9218 9.33905 13.8708L9.11431 12.8094C9.10486 12.7648 9.06561 12.7345 9.02179 12.7348L9.02178 12.7348ZM8 12.8419C7.94789 12.8419 7.90594 12.8838 7.90594 12.9359V14.0209C7.90594 14.073 7.94789 14.1149 8 14.1149C8.05211 14.1149 8.09406 14.073 8.09406 14.0209V12.9359C8.09406 12.8838 8.05211 12.8419 8 12.8419ZM6.27341 13.1925C6.23688 13.1956 6.20409 13.22 6.19201 13.2572L6.05094 13.6912C6.03483 13.7408 6.06176 13.7936 6.11131 13.8097C6.16087 13.8259 6.21374 13.7989 6.22985 13.7493L6.37092 13.3153C6.38703 13.2658 6.3601 13.2129 6.31055 13.1968C6.29817 13.1928 6.28558 13.1914 6.27341 13.1925V13.1925ZM9.72587 13.1927C9.71369 13.1916 9.70111 13.1929 9.68873 13.197C9.63917 13.2131 9.61222 13.266 9.62832 13.3155L9.76935 13.7496C9.78546 13.7991 9.83832 13.826 9.88788 13.8099C9.93744 13.7938 9.96439 13.741 9.94829 13.6914L9.80722 13.2574C9.79513 13.2202 9.7624 13.1958 9.72587 13.1927V13.1927ZM7.40959 13.4344C7.36597 13.4386 7.33003 13.4729 7.32527 13.5182L7.27757 13.9721C7.27212 14.0239 7.30945 14.07 7.36128 14.0755C7.4131 14.0809 7.45922 14.0436 7.46467 13.9917L7.51237 13.5379C7.51783 13.4861 7.48049 13.44 7.42867 13.4345C7.42219 13.4338 7.41582 13.4338 7.40958 13.4344L7.40959 13.4344ZM8.58664 13.4349C8.58041 13.4342 8.574 13.4342 8.56751 13.4349C8.51569 13.4404 8.47832 13.4864 8.48373 13.5383L8.53114 13.9922C8.53655 14.044 8.58263 14.0814 8.63446 14.0759C8.68629 14.0705 8.72366 14.0245 8.71825 13.9726L8.67087 13.5187C8.66614 13.4734 8.63025 13.4391 8.58663 13.4349L8.58664 13.4349Z" fill="#F4F2F3"/>
<g opacity="0.409" filter="url(#filter0_f_4709_52244)">
<path d="M12.4084 4.23755L7.26219 7.22749L4.00842 12.3498L8.76843 8.82416L12.4084 4.23755Z" fill="black"/>
</g>
<path d="M8.73751 8.77223L7.26245 7.2275L12.4951 3.70752L8.73751 8.77223Z" fill="#FF5150"/>
<path d="M8.73762 8.77252L7.26255 7.22778L3.505 12.2925L8.73762 8.77252Z" fill="#F1F1F1"/>
<path opacity="0.243" d="M3.505 12.2922L8.73761 8.77223L12.4952 3.70752L3.505 12.2922Z" fill="black"/>
<defs>
<filter id="filter0_f_4709_52244" x="1.46359" y="1.69271" width="13.4896" height="13.202" filterUnits="userSpaceOnUse" color-interpolation-filters="sRGB">
<feFlood flood-opacity="0" result="BackgroundImageFix"/>
<feBlend mode="normal" in="SourceGraphic" in2="BackgroundImageFix" result="shape"/>
<feGaussianBlur stdDeviation="1.27242" result="effect1_foregroundBlur_4709_52244"/>
</filter>
<linearGradient id="paint0_linear_4709_52244" x1="7.99975" y1="14.9999" x2="7.99975" y2="0.999963" gradientUnits="userSpaceOnUse">
<stop stop-color="#BDBDBD"/>
<stop offset="1" stop-color="white"/>
</linearGradient>
<radialGradient id="paint1_radial_4709_52244" cx="0" cy="0" r="1" gradientUnits="userSpaceOnUse" gradientTransform="translate(8.02903 7.05911) scale(6.99998 6.99997)">
<stop stop-color="#06C2E7"/>
<stop offset="0.25" stop-color="#0DB8EC"/>
<stop offset="0.5" stop-color="#12AEF1"/>
<stop offset="0.75" stop-color="#1F86F9"/>
<stop offset="1" stop-color="#107DDD"/>
</radialGradient>
</defs>
</svg>
