<svg width="24" height="24" viewBox="0 0 24 24" fill="none" xmlns="http://www.w3.org/2000/svg">
<path fill-rule="evenodd" clip-rule="evenodd" d="M6.01131 12.7143L4.5 14.3086V5.36364C4.5 4.76113 4.91867 4.5 5.16667 4.5H14.8333C15.0813 4.5 15.5 4.76113 15.5 5.36364V11.8506C15.5 12.4532 15.0813 12.7143 14.8333 12.7143H6.01131ZM14.8333 14.2143H6.65625L4.22587 16.7782C4.09101 16.9205 3.91076 17 3.72316 17C3.32377 17 3 16.6468 3 16.2111V5.36364C3 4.05824 3.97005 3 5.16667 3H14.8333C16.03 3 17 4.05824 17 5.36364V11.8506C17 13.156 16.03 14.2143 14.8333 14.2143ZM8 20.2718V16.8516L8.875 15.9286H9.5V18.2262L10.7301 16.9286H19C19.156 16.9286 19.5 16.7488 19.5 16.2468V10.1818C19.5 9.67973 19.156 9.5 19 9.5H18.5V8H19C20.1046 8 21 8.97683 21 10.1818V16.2468C21 17.4517 20.1046 18.4286 19 18.4286H11.375L9.13157 20.7953C9.00709 20.9266 8.8407 21 8.66753 21C8.29886 21 8 20.674 8 20.2718Z" fill="#00101C"/>
</svg>
