<svg width="16" height="16" viewBox="0 0 16 16" fill="none" xmlns="http://www.w3.org/2000/svg">
<path d="M8 11.9983C10.2091 11.9983 12 10.2074 12 7.99829C12 5.78915 10.2091 3.99829 8 3.99829C5.79086 3.99829 4 5.78915 4 7.99829C4 10.2074 5.79086 11.9983 8 11.9983Z" fill="white"/>
<path d="M7.99995 4.00001H14.927C14.2251 2.78381 13.2153 1.77385 11.9992 1.07168C10.7832 0.369518 9.40366 -9.79568e-05 7.99943 1.94733e-08C6.59519 9.79957e-05 5.21574 0.369906 3.99976 1.07224C2.78378 1.77457 1.77415 2.78468 1.07239 4.00098L4.53592 10L4.53902 9.99921C4.18669 9.39164 4.00076 8.70191 3.99997 7.99957C3.99918 7.29722 4.18356 6.60708 4.53452 5.99872C4.88549 5.39035 5.39064 4.88526 5.99904 4.53436C6.60745 4.18346 7.29761 3.99915 7.99995 4.00001Z" fill="url(#paint0_linear_4709_52246)"/>
<path d="M8.00004 11.1666C9.74894 11.1666 11.1667 9.74882 11.1667 7.99992C11.1667 6.25102 9.74894 4.83325 8.00004 4.83325C6.25114 4.83325 4.83337 6.25102 4.83337 7.99992C4.83337 9.74882 6.25114 11.1666 8.00004 11.1666Z" fill="#1A73E8"/>
<path d="M11.4637 10.0009L8.00021 15.9999C9.40444 16.0001 10.784 15.6306 12.0001 14.9285C13.2162 14.2265 14.226 13.2166 14.9281 12.0004C15.6301 10.7843 15.9996 9.40474 15.9993 8.00051C15.9991 6.59629 15.6291 5.21687 14.9266 4.00098H7.99961L7.99878 4.00408C8.70113 4.00272 9.39142 4.18655 10.0001 4.53704C10.6087 4.88752 11.1142 5.39227 11.4656 6.0004C11.817 6.60854 12.0018 7.29856 12.0015 8.0009C12.0012 8.70325 11.8157 9.3931 11.4637 10.0009Z" fill="url(#paint1_linear_4709_52246)"/>
<path d="M4.53613 10.001L1.07259 4.00195C0.370303 5.21795 0.000540618 6.59742 0.000488287 8.00166C0.000435955 9.40589 0.370095 10.7854 1.0723 12.0014C1.7745 13.2175 2.78449 14.2272 4.00071 14.9291C5.21694 15.631 6.59653 16.0004 8.00076 16L11.4643 10.0009L11.4621 9.99865C11.1121 10.6076 10.6077 11.1135 9.99984 11.4653C9.39199 11.8172 8.70212 12.0026 7.99977 12.0028C7.29742 12.003 6.60743 11.8181 5.99934 11.4667C5.39124 11.1152 4.88655 10.6097 4.53613 10.001Z" fill="url(#paint2_linear_4709_52246)"/>
<defs>
<linearGradient id="paint0_linear_4709_52246" x1="1.07239" y1="5.00001" x2="14.927" y2="5.00001" gradientUnits="userSpaceOnUse">
<stop stop-color="#D93025"/>
<stop offset="1" stop-color="#EA4335"/>
</linearGradient>
<linearGradient id="paint1_linear_4709_52246" x1="6.90728" y1="15.893" x2="13.8346" y2="3.89451" gradientUnits="userSpaceOnUse">
<stop stop-color="#FCC934"/>
<stop offset="1" stop-color="#FBBC04"/>
</linearGradient>
<linearGradient id="paint2_linear_4709_52246" x1="8.86596" y1="15.5005" x2="1.93863" y2="3.50195" gradientUnits="userSpaceOnUse">
<stop stop-color="#1E8E3E"/>
<stop offset="1" stop-color="#34A853"/>
</linearGradient>
</defs>
</svg>
