<svg width="24" height="24" viewBox="0 0 24 24" fill="none" xmlns="http://www.w3.org/2000/svg">
<g clip-path="url(#clip0_4824_434)">
<circle cx="12" cy="12" r="12" fill="#F6F7F7"/>
<circle cx="12" cy="12" r="10.8" fill="#101517"/>
<path d="M18.3257 9.51268C18.3345 9.63962 18.3345 9.76656 18.3345 9.89466C18.3345 13.7981 15.3626 18.3 9.92846 18.3V18.2977C8.32319 18.3 6.75127 17.8402 5.3999 16.9733C5.63332 17.0014 5.86791 17.0154 6.10308 17.016C7.43339 17.0172 8.72568 16.5708 9.77226 15.749C8.50806 15.725 7.39946 14.9008 7.01219 13.6975C7.45504 13.7829 7.91135 13.7654 8.34601 13.6466C6.96773 13.3682 5.97614 12.1573 5.97614 10.751C5.97614 10.7382 5.97614 10.7259 5.97614 10.7136C6.38681 10.9423 6.84663 11.0693 7.31698 11.0833C6.01884 10.2158 5.6187 8.489 6.40261 7.1389C7.90257 8.98446 10.1157 10.1064 12.4914 10.2252C12.2533 9.19914 12.5785 8.12398 13.3461 7.40272C14.536 6.28427 16.4074 6.3416 17.526 7.53083C18.1876 7.40038 18.8218 7.15762 19.4021 6.81366C19.1815 7.49749 18.72 8.07835 18.1034 8.44747C18.689 8.37844 19.2611 8.22167 19.7999 7.98242C19.4033 8.57674 18.9037 9.09443 18.3257 9.51268Z" fill="white"/>
</g>
<defs>
<clipPath id="clip0_4824_434">
<rect width="24" height="24" fill="white"/>
</clipPath>
</defs>
</svg>
