<svg width="16" height="16" viewBox="0 0 16 16" fill="none" xmlns="http://www.w3.org/2000/svg">
<path d="M15.7131 8.17943C15.7131 6.9597 15.3974 5.81172 14.8521 4.80723C17.2198 -0.502184 12.3409 0.287054 12.0539 0.287054C11.0494 0.487951 10.0449 0.810821 9.18392 1.21979C5.88347 1.18033 3.01351 2.94176 2.08078 6.60096C3.80275 4.66374 5.02248 3.8745 5.73997 3.5875C5.5893 3.72383 5.43863 3.86732 5.28795 4.01082C4.13997 5.1588 3.20724 6.30678 2.418 7.52652C1.80813 8.60275 1.12652 9.53548 0.767774 10.7552C-1.16945 17.7866 4.92921 14.8449 5.7902 14.3427C6.72293 14.8019 7.72742 15.053 8.8754 15.053C11.8889 15.053 14.4718 13.1158 15.4045 10.461H11.7454C10.0234 13.1875 5.93369 11.9678 5.7902 9.02607H15.6915C15.7289 8.7319 15.7489 8.43773 15.7489 8.16508L15.7131 8.17943ZM14.4216 1.36329C15.0171 1.76508 15.4978 2.36777 14.6727 4.52024C13.8835 3.22876 12.7355 2.22427 11.3005 1.72203C11.9391 1.41351 13.5247 0.789296 14.4575 1.36329H14.4216ZM1.72203 14.3498C1.23414 13.8548 1.14804 12.6279 2.22428 10.4036C2.76239 11.9821 3.8745 13.2736 5.23773 14.0628C4.54177 14.4431 2.72652 15.2826 1.72203 14.2996V14.3498ZM5.73997 7.17495C5.79522 5.59647 7.17495 4.30499 8.89692 4.30499C10.6189 4.30499 11.9821 5.59647 12.0539 7.17495H5.81172H5.73997Z" fill="#1EBBEE"/>
</svg>
