<svg width="16" height="16" viewBox="0 0 16 16" fill="none" xmlns="http://www.w3.org/2000/svg">
<path d="M13.6168 6.02494C13.5313 6.09127 12.0219 6.94178 12.0219 8.83294C12.0219 11.0204 13.9425 11.7943 14 11.8134C13.9912 11.8606 13.6949 12.8732 12.9873 13.905C12.3565 14.813 11.6976 15.7196 10.6952 15.7196C9.69291 15.7196 9.43496 15.1373 8.27785 15.1373C7.15023 15.1373 6.74929 15.7387 5.83245 15.7387C4.91561 15.7387 4.27589 14.8985 3.54035 13.8667C2.68837 12.6551 2 10.7728 2 8.98624C2 6.12075 3.86316 4.60103 5.69684 4.60103C6.67117 4.60103 7.48336 5.24076 8.09507 5.24076C8.67731 5.24076 9.58531 4.56271 10.6938 4.56271C11.1139 4.56271 12.6233 4.60103 13.6168 6.02494ZM10.1675 3.34959C10.626 2.80567 10.9503 2.05098 10.9503 1.29628C10.9503 1.19162 10.9414 1.08549 10.9222 1C10.1764 1.02801 9.28903 1.49674 8.75396 2.11731C8.33387 2.59489 7.94178 3.34959 7.94178 4.11461C7.94178 4.22958 7.96094 4.34455 7.96978 4.3814C8.01695 4.39025 8.0936 4.40057 8.17025 4.40057C8.83946 4.40057 9.68112 3.95246 10.1675 3.34959Z" fill="black"/>
</svg>
