<svg width="33" height="33" viewBox="0 0 33 33" fill="none" xmlns="http://www.w3.org/2000/svg">
<path d="M23.1433 26.52L22.9236 26.3L22.6127 26.3L14.926 26.3C14.788 26.3 14.676 26.1881 14.676 26.05L14.676 17.5C14.676 17.3619 14.788 17.25 14.926 17.25L25.9106 17.25C26.0487 17.25 26.1606 17.3619 26.1606 17.5L26.1606 28.8675C26.1606 28.9704 26.104 29.0649 26.0132 29.1133C25.905 29.171 25.7717 29.1511 25.6851 29.0643L23.1433 26.52Z" stroke="#0675C4" stroke-width="1.5"/>
<path d="M9.90255 14.8338L10.1223 14.6138L10.4332 14.6138L18.1199 14.6138C18.2579 14.6138 18.3699 14.5019 18.3699 14.3638L18.3699 5.81385C18.3699 5.67578 18.2579 5.56385 18.1199 5.56385L7.13526 5.56385C6.99718 5.56385 6.88526 5.67577 6.88526 5.81385L6.88525 17.1813C6.88525 17.2842 6.94195 17.3787 7.03271 17.4271C7.14093 17.4848 7.27416 17.465 7.36084 17.3782L9.90255 14.8338Z" stroke="#0675C4" stroke-width="1.5"/>
</svg>
