<svg width="24" height="24" viewBox="0 0 24 24" fill="none" xmlns="http://www.w3.org/2000/svg">
<circle cx="12" cy="12" r="12" fill="#F6F7F7"/>
<circle cx="12" cy="12" r="10.8" fill="#101517"/>
<path fill-rule="evenodd" clip-rule="evenodd" d="M17.6103 6.92637C18.2296 7.10439 18.7194 7.62857 18.8858 8.29121C19.1908 9.4978 19.2001 12 19.2001 12C19.2001 12 19.2001 14.5121 18.895 15.7088C18.7287 16.3714 18.2388 16.8956 17.6196 17.0736C16.5012 17.4 12 17.4 12 17.4C12 17.4 7.49889 17.4 6.38054 17.0736C5.76128 16.8956 5.27142 16.3714 5.10506 15.7088C4.80005 14.5022 4.80005 12 4.80005 12C4.80005 12 4.80005 9.4978 5.09581 8.3011C5.26218 7.63846 5.75204 7.11428 6.37129 6.93626C7.48965 6.60989 11.9908 6.6 11.9908 6.6C11.9908 6.6 16.492 6.6 17.6103 6.92637ZM14.2922 12L10.5582 14.3143V9.68568L14.2922 12Z" fill="white"/>
</svg>
