<svg width="24" height="24" viewBox="0 0 24 24" fill="none" xmlns="http://www.w3.org/2000/svg">
<path fill-rule="evenodd" clip-rule="evenodd" d="M4.00001 13C4.67083 13.3354 4.67069 13.3357 4.67057 13.3359L4.67337 13.3305C4.67661 13.3242 4.68224 13.3135 4.69027 13.2985C4.70634 13.2686 4.732 13.2218 4.76735 13.1608C4.83809 13.0385 4.94732 12.8592 5.0958 12.6419C5.39352 12.2062 5.84475 11.624 6.45475 11.0431C7.67348 9.88241 9.49758 8.75 12 8.75C14.5024 8.75 16.3265 9.88241 17.5453 11.0431C18.1553 11.624 18.6065 12.2062 18.9042 12.6419C19.0527 12.8592 19.1619 13.0385 19.2327 13.1608C19.268 13.2218 19.2937 13.2686 19.3097 13.2985C19.3178 13.3135 19.3234 13.3242 19.3266 13.3305L19.3294 13.3359C19.3293 13.3357 19.3292 13.3354 20 13C20.6708 12.6646 20.6707 12.6643 20.6705 12.664L20.6701 12.6632L20.6692 12.6614L20.6666 12.6563L20.6587 12.6408C20.6521 12.6282 20.6431 12.6108 20.6314 12.5892C20.6082 12.5459 20.5748 12.4852 20.531 12.4096C20.4436 12.2584 20.3145 12.0471 20.1427 11.7956C19.7998 11.2938 19.2823 10.626 18.5797 9.9569C17.1735 8.61759 14.9976 7.25 12 7.25C9.00243 7.25 6.82653 8.61759 5.42026 9.9569C4.71776 10.626 4.20024 11.2938 3.85734 11.7956C3.68551 12.0471 3.55645 12.2584 3.46899 12.4096C3.42524 12.4852 3.39181 12.5459 3.36858 12.5892C3.35696 12.6108 3.34788 12.6282 3.34132 12.6408L3.33337 12.6563L3.33081 12.6614L3.32988 12.6632L3.3295 12.664C3.32934 12.6643 3.32919 12.6646 4.00001 13ZM12 16C13.933 16 15.5 14.433 15.5 12.5C15.5 10.567 13.933 9 12 9C10.067 9 8.50001 10.567 8.50001 12.5C8.50001 14.433 10.067 16 12 16Z" fill="#00101C"/>
</svg>
