<svg width="16" height="16" viewBox="0 0 16 16" fill="none" xmlns="http://www.w3.org/2000/svg">
<path d="M14.8002 5.41538C14.4693 4.61928 13.7982 3.75972 13.2726 3.488C13.6474 4.21374 13.9075 4.99314 14.0438 5.7985L14.0451 5.81127C13.1842 3.66581 11.7248 2.79937 10.5322 0.915221C10.4719 0.819932 10.4116 0.724448 10.3529 0.623658C10.3193 0.566093 10.2923 0.514224 10.269 0.466482C10.2195 0.370713 10.1814 0.269502 10.1554 0.1649C10.1554 0.160073 10.1537 0.155402 10.1505 0.151778C10.1473 0.148155 10.1429 0.145832 10.1381 0.145253C10.1334 0.143965 10.1285 0.143965 10.1238 0.145253C10.1228 0.145253 10.1212 0.147021 10.12 0.147414C10.1189 0.147807 10.1163 0.149575 10.1145 0.150361L10.1175 0.145253C8.20485 1.26513 7.55551 3.3379 7.49657 4.37526C6.73249 4.42765 6.00193 4.70912 5.40023 5.18295C5.33748 5.1298 5.27189 5.08009 5.20376 5.03403C5.03027 4.42672 5.02288 3.784 5.18234 3.17286C4.47993 3.51311 3.85581 3.99547 3.34947 4.58942H3.34593C3.04415 4.20689 3.06537 2.94555 3.08266 2.68208C2.99339 2.71796 2.90817 2.7632 2.82843 2.81706C2.56202 3.00719 2.31297 3.22054 2.0842 3.4546C1.8235 3.71892 1.5854 4.0046 1.37239 4.30866V4.30984V4.30846C0.882887 5.00232 0.535657 5.78626 0.35074 6.61503L0.340523 6.66532C0.326181 6.73232 0.274509 7.06789 0.265668 7.14078C0.265668 7.14648 0.264489 7.15178 0.2639 7.15748C0.197247 7.50393 0.155944 7.85477 0.14032 8.20722V8.24652C0.143685 10.152 0.861285 11.987 2.15146 13.3892C3.44164 14.7915 5.21064 15.6591 7.10924 15.8208C9.00785 15.9825 10.8981 15.4266 12.4068 14.2627C13.9156 13.0988 14.9332 11.4116 15.2587 9.53419C15.2715 9.43595 15.2819 9.3387 15.2933 9.23948C15.4501 7.94315 15.2804 6.62817 14.7994 5.4142L14.8002 5.41538ZM6.02383 11.3763C6.05939 11.3934 6.09279 11.4119 6.12933 11.4282L6.13464 11.4315C6.0977 11.4138 6.06076 11.3954 6.02383 11.3763ZM14.0453 5.81343V5.80616L14.0467 5.81421L14.0453 5.81343Z" fill="url(#paint0_linear_4709_52241)"/>
<path d="M14.8002 5.41541C14.4693 4.61931 13.7982 3.75976 13.2726 3.48804C13.6474 4.21378 13.9075 4.99318 14.0438 5.79853V5.8058L14.0451 5.81386C14.6322 7.49349 14.5473 9.33502 13.8082 10.9535C12.9355 12.8261 10.8238 14.7454 7.51721 14.6511C3.94538 14.5499 0.797922 11.8985 0.210475 8.42691C0.103399 7.87935 0.210475 7.60174 0.264308 7.15673C0.190877 7.5024 0.149899 7.85417 0.141907 8.20746V8.24675C0.145272 10.1522 0.862872 11.9872 2.15305 13.3895C3.44323 14.7917 5.21222 15.6593 7.11083 15.821C9.00944 15.9827 10.8997 15.4268 12.4084 14.2629C13.9172 13.0991 14.9347 11.4119 15.2603 9.53442C15.2731 9.43618 15.2835 9.33893 15.2949 9.23971C15.4517 7.94338 15.2819 6.62841 14.801 5.41443L14.8002 5.41541Z" fill="url(#paint1_radial_4709_52241)"/>
<path d="M14.8002 5.41541C14.4693 4.61931 13.7982 3.75976 13.2726 3.48804C13.6474 4.21378 13.9075 4.99318 14.0438 5.79853V5.8058L14.0451 5.81386C14.6322 7.49349 14.5473 9.33502 13.8082 10.9535C12.9355 12.8261 10.8238 14.7454 7.51721 14.6511C3.94538 14.5499 0.797922 11.8985 0.210475 8.42691C0.103399 7.87935 0.210475 7.60174 0.264308 7.15673C0.190877 7.5024 0.149899 7.85417 0.141907 8.20746V8.24675C0.145272 10.1522 0.862872 11.9872 2.15305 13.3895C3.44323 14.7917 5.21222 15.6593 7.11083 15.821C9.00944 15.9827 10.8997 15.4268 12.4084 14.2629C13.9172 13.0991 14.9347 11.4119 15.2603 9.53442C15.2731 9.43618 15.2835 9.33893 15.2949 9.23971C15.4517 7.94338 15.2819 6.62841 14.801 5.41443L14.8002 5.41541Z" fill="url(#paint2_radial_4709_52241)"/>
<path d="M11.0987 6.30929C11.1152 6.32088 11.1305 6.33247 11.146 6.34406C10.9547 6.0049 10.7166 5.69437 10.4387 5.42163C8.07124 3.05416 9.81846 0.289824 10.113 0.148365L10.1159 0.144043C8.20327 1.26392 7.55394 3.33669 7.495 4.37405C7.5838 4.36796 7.67182 4.3605 7.76259 4.3605C8.44117 4.36181 9.1073 4.54278 9.69326 4.885C10.2792 5.22723 10.7641 5.71851 11.0987 6.3089V6.30929Z" fill="url(#paint3_radial_4709_52241)"/>
<path d="M7.76652 6.78279C7.75395 6.97218 7.08477 7.62545 6.85077 7.62545C4.68567 7.62545 4.33398 8.93532 4.33398 8.93532C4.42986 10.0383 5.19845 10.9472 6.12756 11.4266C6.17 11.4486 6.21303 11.4684 6.25606 11.4879C6.33058 11.5209 6.40511 11.5514 6.47964 11.5794C6.79851 11.6923 7.13248 11.7567 7.47044 11.7706C11.2663 11.9486 12.0011 7.23211 9.26205 5.86271C9.90816 5.77865 10.5625 5.93751 11.0981 6.30851C10.7635 5.71812 10.2786 5.22684 9.69268 4.88461C9.10671 4.54239 8.44058 4.36142 7.762 4.36011C7.67163 4.36011 7.58321 4.36757 7.49441 4.37366C6.73033 4.42605 5.99977 4.70752 5.39807 5.18135C5.51418 5.27959 5.64523 5.41083 5.92127 5.68294C6.43799 6.192 7.76318 6.71933 7.76613 6.78121L7.76652 6.78279Z" fill="url(#paint4_radial_4709_52241)"/>
<path d="M7.76652 6.78279C7.75395 6.97218 7.08477 7.62545 6.85077 7.62545C4.68567 7.62545 4.33398 8.93532 4.33398 8.93532C4.42986 10.0383 5.19845 10.9472 6.12756 11.4266C6.17 11.4486 6.21303 11.4684 6.25606 11.4879C6.33058 11.5209 6.40511 11.5514 6.47964 11.5794C6.79851 11.6923 7.13248 11.7567 7.47044 11.7706C11.2663 11.9486 12.0011 7.23211 9.26205 5.86271C9.90816 5.77865 10.5625 5.93751 11.0981 6.30851C10.7635 5.71812 10.2786 5.22684 9.69268 4.88461C9.10671 4.54239 8.44058 4.36142 7.762 4.36011C7.67163 4.36011 7.58321 4.36757 7.49441 4.37366C6.73033 4.42605 5.99977 4.70752 5.39807 5.18135C5.51418 5.27959 5.64523 5.41083 5.92127 5.68294C6.43799 6.192 7.76318 6.71933 7.76613 6.78121L7.76652 6.78279Z" fill="url(#paint5_radial_4709_52241)"/>
<path d="M5.04343 4.93018C5.10512 4.96947 5.156 5.00366 5.2006 5.03451C5.02712 4.4272 5.01972 3.78448 5.17919 3.17334C4.47678 3.51359 3.85265 3.99595 3.34631 4.58989C3.38345 4.58891 4.488 4.56907 5.04343 4.93018Z" fill="url(#paint6_radial_4709_52241)"/>
<path d="M0.209092 8.4273C0.796735 11.8989 3.944 14.5513 7.51583 14.6515C10.8224 14.745 12.9345 12.8255 13.8068 10.9539C14.5459 9.33541 14.6308 7.49388 14.0438 5.81424V5.80698C14.0438 5.80128 14.0426 5.79794 14.0438 5.79971L14.0451 5.81248C14.3153 7.57619 13.4182 9.28411 12.0156 10.4413L12.0113 10.4511C9.27837 12.6772 6.66334 11.7938 6.13484 11.4335C6.0979 11.4158 6.06097 11.3974 6.02403 11.3783C4.43085 10.6168 3.77248 9.16603 3.91394 7.92041C3.53575 7.92599 3.16406 7.82178 2.84391 7.62039C2.52375 7.41901 2.26887 7.1291 2.11014 6.78579C2.52839 6.52958 3.00527 6.38474 3.49536 6.36507C3.98545 6.3454 4.47241 6.45155 4.90985 6.67341C5.8115 7.08268 6.83749 7.12302 7.76849 6.78579C7.76555 6.7239 6.44035 6.19638 5.92363 5.68752C5.64759 5.41541 5.51655 5.28436 5.40043 5.18593C5.33768 5.13278 5.27209 5.08306 5.20396 5.03701C5.15877 5.00616 5.10789 4.97276 5.04678 4.93268C4.49136 4.57157 3.38681 4.59141 3.35026 4.59239H3.34673C3.04495 4.20987 3.06617 2.94853 3.08346 2.68506C2.99418 2.72094 2.90896 2.76618 2.82922 2.82003C2.56281 3.01017 2.31377 3.22351 2.08499 3.45758C1.82336 3.72115 1.58427 4.00618 1.37023 4.30967V4.31085V4.30948C0.880733 5.00334 0.533503 5.78727 0.348586 6.61604C0.344853 6.63156 0.0743128 7.81431 0.207716 8.4277L0.209092 8.4273Z" fill="url(#paint7_radial_4709_52241)"/>
<path d="M10.4385 5.42134C10.7165 5.69438 10.9546 6.00524 11.1458 6.34475C11.1876 6.37639 11.2267 6.40782 11.2599 6.43827C12.9863 8.02969 12.0818 10.2793 12.0144 10.4384C13.4168 9.28297 14.3131 7.57387 14.0439 5.80957C13.1826 3.66215 11.7216 2.79571 10.531 0.911559C10.4707 0.81627 10.4104 0.720786 10.3517 0.619996C10.3181 0.56243 10.2911 0.510562 10.2678 0.46282C10.2183 0.367051 10.1802 0.265839 10.1542 0.161238C10.1542 0.156411 10.1525 0.15174 10.1493 0.148116C10.1461 0.144493 10.1417 0.14217 10.1369 0.141591C10.1322 0.140303 10.1273 0.140303 10.1226 0.141591C10.1216 0.141591 10.12 0.143359 10.1188 0.143752C10.1177 0.144145 10.1151 0.145913 10.1133 0.146699C9.81883 0.286389 8.07201 3.0525 10.4395 5.418L10.4385 5.42134Z" fill="url(#paint8_radial_4709_52241)"/>
<path d="M11.2598 6.43909C11.2265 6.40863 11.1875 6.3772 11.1456 6.34557C11.1301 6.33397 11.1148 6.32238 11.0983 6.31079C10.5626 5.9398 9.90834 5.78093 9.26224 5.865C12.001 7.2344 11.2662 11.9497 7.47062 11.7729C7.13266 11.759 6.79869 11.6945 6.47982 11.5817C6.40529 11.5538 6.33077 11.5233 6.25624 11.4901C6.21321 11.4705 6.17018 11.4509 6.12775 11.4288L6.13305 11.4322C6.66234 11.7935 9.27658 12.6762 12.0095 10.4498L12.0138 10.44C12.082 10.2809 12.9865 8.03128 11.2594 6.43987L11.2598 6.43909Z" fill="url(#paint9_radial_4709_52241)"/>
<path d="M4.33415 8.93421C4.33415 8.93421 4.68564 7.62434 6.85094 7.62434C7.08494 7.62434 7.7547 6.97107 7.76669 6.78168C6.83568 7.1189 5.8097 7.07857 4.90804 6.66929C4.47061 6.44743 3.98365 6.34128 3.49356 6.36095C3.00347 6.38063 2.52658 6.52547 2.10834 6.78168C2.26707 7.12498 2.52195 7.41489 2.8421 7.61628C3.16226 7.81766 3.53395 7.92187 3.91213 7.91629C3.77107 9.16133 4.42924 10.6119 6.02223 11.3742C6.05779 11.3913 6.09119 11.4097 6.12773 11.426C5.19784 10.9457 4.43003 10.0372 4.33415 8.9348V8.93421Z" fill="url(#paint10_radial_4709_52241)"/>
<path d="M14.8002 5.41538C14.4693 4.61928 13.7982 3.75972 13.2726 3.488C13.6474 4.21374 13.9075 4.99314 14.0438 5.7985L14.0452 5.81127C13.1842 3.66581 11.7248 2.79937 10.5323 0.915221C10.472 0.819933 10.4116 0.724448 10.3529 0.623658C10.3193 0.566093 10.2924 0.514224 10.269 0.466482C10.2195 0.370713 10.1814 0.269502 10.1554 0.1649C10.1555 0.160073 10.1537 0.155402 10.1505 0.151778C10.1474 0.148155 10.1429 0.145832 10.1381 0.145253C10.1335 0.143965 10.1285 0.143965 10.1238 0.145253C10.1228 0.145253 10.1213 0.147021 10.1201 0.147414C10.1189 0.147807 10.1163 0.149575 10.1146 0.150361L10.1175 0.145253C8.20488 1.26513 7.55554 3.3379 7.4966 4.37526C7.58541 4.36917 7.67343 4.36171 7.7642 4.36171C8.44277 4.36302 9.10891 4.54399 9.69487 4.88621C10.2808 5.22844 10.7657 5.71972 11.1003 6.31011C10.5647 5.93911 9.91035 5.78025 9.26425 5.86431C12.003 7.23371 11.2682 11.949 7.47263 11.7722C7.13468 11.7583 6.8007 11.6939 6.48183 11.581C6.40731 11.5531 6.33278 11.5226 6.25825 11.4895C6.21522 11.4698 6.1722 11.4502 6.12976 11.4282L6.13506 11.4315C6.09813 11.4138 6.06119 11.3954 6.02425 11.3763C6.05981 11.3934 6.09321 11.4119 6.12976 11.4282C5.19986 10.9476 4.43206 10.0391 4.33618 8.93692C4.33618 8.93692 4.68766 7.62705 6.85297 7.62705C7.08696 7.62705 7.75673 6.97378 7.76872 6.78439C7.76577 6.7225 6.44057 6.19497 5.92386 5.68611C5.64782 5.414 5.51677 5.28296 5.40066 5.18453C5.3379 5.13137 5.27232 5.08166 5.20419 5.0356C5.0307 4.4283 5.0233 3.78557 5.18277 3.17444C4.48036 3.51468 3.85623 3.99704 3.3499 4.59099H3.34636C3.04458 4.20846 3.0658 2.94712 3.08309 2.68365C2.99381 2.71953 2.90859 2.76478 2.82886 2.81863C2.56245 3.00876 2.3134 3.22211 2.08463 3.45617C1.82393 3.72049 1.58582 4.00617 1.37281 4.31023V4.31141V4.31004C0.883314 5.00389 0.536084 5.78783 0.351167 6.6166L0.340951 6.6669C0.326608 6.73389 0.262362 7.07418 0.253128 7.14727C0.194364 7.49853 0.156836 7.85302 0.140747 8.2088V8.24809C0.144112 10.1536 0.861713 11.9885 2.15189 13.3908C3.44207 14.793 5.21106 15.6607 7.10967 15.8224C9.00828 15.9841 10.8985 15.4281 12.4073 14.2643C13.916 13.1004 14.9336 11.4132 15.2592 9.53576C15.2719 9.43752 15.2823 9.34027 15.2937 9.24105C15.4506 7.94472 15.2808 6.62975 14.7998 5.41577L14.8002 5.41538ZM14.0448 5.80655L14.0461 5.81461L14.0448 5.80655Z" fill="url(#paint11_linear_4709_52241)"/>
<defs>
<linearGradient id="paint0_linear_4709_52241" x1="13.7923" y1="2.57754" x2="1.15077" y2="14.7744" gradientUnits="userSpaceOnUse">
<stop offset="0.048" stop-color="#FFF44F"/>
<stop offset="0.111" stop-color="#FFE847"/>
<stop offset="0.225" stop-color="#FFC830"/>
<stop offset="0.368" stop-color="#FF980E"/>
<stop offset="0.401" stop-color="#FF8B16"/>
<stop offset="0.462" stop-color="#FF672A"/>
<stop offset="0.534" stop-color="#FF3647"/>
<stop offset="0.705" stop-color="#E31587"/>
</linearGradient>
<radialGradient id="paint1_radial_4709_52241" cx="0" cy="0" r="1" gradientUnits="userSpaceOnUse" gradientTransform="translate(13.3031 1.91234) scale(15.8748)">
<stop offset="0.129" stop-color="#FFBD4F"/>
<stop offset="0.186" stop-color="#FFAC31"/>
<stop offset="0.247" stop-color="#FF9D17"/>
<stop offset="0.283" stop-color="#FF980E"/>
<stop offset="0.403" stop-color="#FF563B"/>
<stop offset="0.467" stop-color="#FF3750"/>
<stop offset="0.71" stop-color="#F5156C"/>
<stop offset="0.782" stop-color="#EB0878"/>
<stop offset="0.86" stop-color="#E50080"/>
</radialGradient>
<radialGradient id="paint2_radial_4709_52241" cx="0" cy="0" r="1" gradientUnits="userSpaceOnUse" gradientTransform="translate(7.40896 8.39587) scale(15.8748)">
<stop offset="0.3" stop-color="#960E18"/>
<stop offset="0.351" stop-color="#B11927" stop-opacity="0.74"/>
<stop offset="0.435" stop-color="#DB293D" stop-opacity="0.343"/>
<stop offset="0.497" stop-color="#F5334B" stop-opacity="0.094"/>
<stop offset="0.53" stop-color="#FF3750" stop-opacity="0"/>
</radialGradient>
<radialGradient id="paint3_radial_4709_52241" cx="0" cy="0" r="1" gradientUnits="userSpaceOnUse" gradientTransform="translate(9.37365 -1.62419) scale(11.4994)">
<stop offset="0.132" stop-color="#FFF44F"/>
<stop offset="0.252" stop-color="#FFDC3E"/>
<stop offset="0.506" stop-color="#FF9D12"/>
<stop offset="0.526" stop-color="#FF980E"/>
</radialGradient>
<radialGradient id="paint4_radial_4709_52241" cx="0" cy="0" r="1" gradientUnits="userSpaceOnUse" gradientTransform="translate(5.64071 12.5217) scale(7.55822)">
<stop offset="0.353" stop-color="#3A8EE6"/>
<stop offset="0.472" stop-color="#5C79F0"/>
<stop offset="0.669" stop-color="#9059FF"/>
<stop offset="1" stop-color="#C139E6"/>
</radialGradient>
<radialGradient id="paint5_radial_4709_52241" cx="0" cy="0" r="1" gradientUnits="userSpaceOnUse" gradientTransform="translate(8.17675 7.03309) rotate(-13.5916) scale(4.00802 4.69239)">
<stop offset="0.206" stop-color="#9059FF" stop-opacity="0"/>
<stop offset="0.278" stop-color="#8C4FF3" stop-opacity="0.064"/>
<stop offset="0.747" stop-color="#7716A8" stop-opacity="0.45"/>
<stop offset="0.975" stop-color="#6E008B" stop-opacity="0.6"/>
</radialGradient>
<radialGradient id="paint6_radial_4709_52241" cx="0" cy="0" r="1" gradientUnits="userSpaceOnUse" gradientTransform="translate(7.21246 1.32298) scale(5.4383)">
<stop stop-color="#FFE226"/>
<stop offset="0.121" stop-color="#FFDB27"/>
<stop offset="0.295" stop-color="#FFC82A"/>
<stop offset="0.502" stop-color="#FFA930"/>
<stop offset="0.732" stop-color="#FF7E37"/>
<stop offset="0.792" stop-color="#FF7139"/>
</radialGradient>
<radialGradient id="paint7_radial_4709_52241" cx="0" cy="0" r="1" gradientUnits="userSpaceOnUse" gradientTransform="translate(11.5348 -2.21354) scale(23.2032)">
<stop offset="0.113" stop-color="#FFF44F"/>
<stop offset="0.456" stop-color="#FF980E"/>
<stop offset="0.622" stop-color="#FF5634"/>
<stop offset="0.716" stop-color="#FF3647"/>
<stop offset="0.904" stop-color="#E31587"/>
</radialGradient>
<radialGradient id="paint8_radial_4709_52241" cx="0" cy="0" r="1" gradientUnits="userSpaceOnUse" gradientTransform="translate(9.60625 -0.927012) rotate(83.976) scale(17.0036 11.1593)">
<stop stop-color="#FFF44F"/>
<stop offset="0.06" stop-color="#FFE847"/>
<stop offset="0.168" stop-color="#FFC830"/>
<stop offset="0.304" stop-color="#FF980E"/>
<stop offset="0.356" stop-color="#FF8B16"/>
<stop offset="0.455" stop-color="#FF672A"/>
<stop offset="0.57" stop-color="#FF3647"/>
<stop offset="0.737" stop-color="#E31587"/>
</radialGradient>
<radialGradient id="paint9_radial_4709_52241" cx="0" cy="0" r="1" gradientUnits="userSpaceOnUse" gradientTransform="translate(7.21246 3.2877) scale(14.4838 14.4838)">
<stop offset="0.137" stop-color="#FFF44F"/>
<stop offset="0.48" stop-color="#FF980E"/>
<stop offset="0.592" stop-color="#FF5634"/>
<stop offset="0.655" stop-color="#FF3647"/>
<stop offset="0.904" stop-color="#E31587"/>
</radialGradient>
<radialGradient id="paint10_radial_4709_52241" cx="0" cy="0" r="1" gradientUnits="userSpaceOnUse" gradientTransform="translate(10.9454 4.07353) scale(15.8532)">
<stop offset="0.094" stop-color="#FFF44F"/>
<stop offset="0.231" stop-color="#FFE141"/>
<stop offset="0.509" stop-color="#FFAF1E"/>
<stop offset="0.626" stop-color="#FF980E"/>
</radialGradient>
<linearGradient id="paint11_linear_4709_52241" x1="13.6391" y1="2.51271" x2="2.88426" y2="13.2695" gradientUnits="userSpaceOnUse">
<stop offset="0.167" stop-color="#FFF44F" stop-opacity="0.8"/>
<stop offset="0.266" stop-color="#FFF44F" stop-opacity="0.634"/>
<stop offset="0.489" stop-color="#FFF44F" stop-opacity="0.217"/>
<stop offset="0.6" stop-color="#FFF44F" stop-opacity="0"/>
</linearGradient>
</defs>
</svg>
