<svg width="24" height="24" viewBox="0 0 24 24" fill="none" xmlns="http://www.w3.org/2000/svg">
<path fill-rule="evenodd" clip-rule="evenodd" d="M11.9999 4C9.27825 4 7.06782 6.19155 7.04133 8.90625L7.04058 11.0352L4.1302 15.7001C3.77698 16.2662 4.18404 17 4.85136 17H19.1475C19.8148 17 20.2218 16.2662 19.8686 15.7001L16.9582 11.0352L16.9588 8.95558C16.9588 6.21814 14.7381 4 11.9999 4ZM11.9999 5.5C10.0891 5.5 8.54109 7.04766 8.54109 8.95558L8.54058 11.4648L6.02302 15.5H17.9758L15.4582 11.4648L15.4584 8.90625C15.432 7.02106 13.8942 5.5 11.9999 5.5ZM14 18C14 19.1046 13.1046 20 12 20C10.8954 20 10 19.1046 10 18H14Z" fill="#00101C"/>
</svg>
