<svg width="192" height="33" viewBox="0 0 192 33" fill="none" xmlns="http://www.w3.org/2000/svg">
<path fill-rule="evenodd" clip-rule="evenodd" d="M23.4766 28.7277L27.7307 16.1931C28.5258 14.1681 28.7903 12.5491 28.7903 11.1094C28.7903 10.5866 28.7565 10.1016 28.6964 9.64958C29.7838 11.6712 30.4025 13.9912 30.4025 16.4592C30.4025 21.6955 27.6178 26.2677 23.4766 28.7277ZM18.3885 9.80231C19.227 9.75745 19.9826 9.66754 19.9826 9.66754C20.7331 9.57724 20.6448 8.45306 19.894 8.49792C19.894 8.49792 17.6379 8.67832 16.1813 8.67832C14.8125 8.67832 12.5127 8.49792 12.5127 8.49792C11.7617 8.45306 11.6736 9.6223 12.4247 9.66754C12.4247 9.66754 13.1351 9.75745 13.8853 9.80231L16.0553 15.8615L13.0064 25.1771L7.9347 9.80231C8.77397 9.75745 9.52859 9.66754 9.52859 9.66754C10.2791 9.57724 10.1903 8.45306 9.4396 8.49792C9.4396 8.49792 7.18385 8.67832 5.72732 8.67832C5.46621 8.67832 5.15805 8.67158 4.83043 8.66099C7.3214 4.80806 11.6024 2.26357 16.4687 2.26357C20.095 2.26357 23.3969 3.67636 25.8749 5.9902C25.8152 5.98635 25.7562 5.97865 25.6946 5.97865C24.3261 5.97865 23.3554 7.19313 23.3554 8.49792C23.3554 9.66754 24.0176 10.657 24.7237 11.827C25.2533 12.7723 25.8718 13.9866 25.8718 15.7411C25.8718 16.9566 25.5183 18.4853 24.8121 20.3301L23.4224 25.0604L18.3885 9.80231ZM16.4743 30.6544C15.1071 30.6544 13.7874 30.4495 12.5394 30.0762L16.7191 17.7007L21.0003 29.6538C21.0285 29.7235 21.0629 29.7878 21.1001 29.8492C19.6522 30.3681 18.0965 30.6544 16.4743 30.6544ZM2.54271 16.4608C2.54271 14.4028 2.97595 12.449 3.74908 10.6841L10.3933 29.235C5.74617 26.9347 2.54271 22.0794 2.54271 16.4608ZM16.4719 0.671631C7.92962 0.671631 0.979492 7.7535 0.979492 16.4584C0.979492 25.1641 7.92962 32.2467 16.4719 32.2467C25.0145 32.2467 31.9648 25.1641 31.9648 16.4584C31.9648 7.7535 25.0145 0.671631 16.4719 0.671631Z" fill="white"/>
<path fill-rule="evenodd" clip-rule="evenodd" d="M55.8488 9.69451L52.7597 21.7895L49.6709 9.69451H46.5526L47.2787 12.2866L44.5595 22.1988L41.6022 9.69451H38.6038L42.819 25.4911H46.0863L48.6113 17.0457L50.9766 25.4911H54.2443L58.6687 9.69451H55.8488ZM145.671 25.4888H148.41V22.6127H145.671V25.4888ZM63.8727 14.0097C60.1015 14.0097 58.3196 16.4856 58.3196 19.9042C58.3196 23.323 60.1015 25.7754 63.8727 25.7754C67.6211 25.7754 69.4258 23.323 69.4258 19.9042C69.4258 16.4856 67.6211 14.0097 63.8727 14.0097ZM63.8753 23.5358C62.0936 23.5358 61.1453 22.3572 61.1453 19.9047C61.1453 17.4763 62.0936 16.2736 63.8753 16.2736C65.657 16.2736 66.5828 17.4528 66.5828 19.9047C66.5828 22.3337 65.657 23.5358 63.8753 23.5358ZM87.2933 14.2681C86.4833 14.1035 85.905 14.0087 85.234 14.0087C81.4626 14.0087 79.4034 16.5788 79.4034 20.3278C79.4034 24.0529 81.4626 25.7745 83.8922 25.7745C85.0956 25.7745 86.5528 25.2083 87.4322 24.4539V25.4911H90.0233V9.69449H87.2933V14.2681ZM87.2954 22.2617C86.4165 23.0867 85.5832 23.5349 84.7043 23.5349C83.1999 23.5349 82.2282 22.5207 82.2282 20.1396C82.2282 17.5695 83.4314 16.2259 85.5141 16.2259C86.1616 16.2259 86.8329 16.3907 87.2954 16.5793V22.2617ZM98.4604 9.69449H93.4036V25.4911H96.3191V19.9976H98.4604C101.769 19.9976 104.176 18.182 104.176 14.7871C104.176 11.3678 101.769 9.69449 98.4604 9.69449ZM98.485 17.6889H96.3204V12.0306H98.485C100.244 12.0306 101.123 13.0206 101.123 14.7892C101.123 16.5335 100.313 17.6889 98.485 17.6889ZM119 14.0097C115.484 14.0097 113.656 16.7921 113.656 19.8334C113.656 24.0071 115.807 25.7754 119.297 25.7754C120.708 25.7754 121.928 25.5841 123.351 25.1386V22.8251C122.205 23.2535 121.171 23.5115 120.06 23.5115C118.025 23.5115 116.664 22.9458 116.594 20.4936H123.628C123.675 20.0459 123.721 19.6216 123.721 18.8436C123.721 16.4856 122.495 14.0097 119 14.0097ZM116.617 18.651C116.779 17.0947 117.612 16.1045 118.977 16.1045C120.435 16.1045 120.874 17.2838 120.874 18.651H116.617ZM128.467 17.4288C128.467 16.5798 129.37 16.2502 130.341 16.2502C131.908 16.2502 133.395 16.7448 133.395 16.7448V14.434C132.377 14.1277 131.336 14.0097 130.133 14.0097C127.495 14.0097 125.644 15.2829 125.644 17.3576C125.644 21.3896 131.105 20.3526 131.105 22.3093C131.105 23.276 130.248 23.5353 128.999 23.5353C128.12 23.5353 126.709 23.1857 125.691 22.8251V25.1124C126.538 25.4522 127.726 25.7754 128.906 25.7754C131.475 25.7754 133.927 24.997 133.927 22.1915C133.927 18.301 128.467 19.3149 128.467 17.4288ZM166.354 14.0097C162.583 14.0097 160.801 16.4856 160.801 19.9042C160.801 23.323 162.583 25.7754 166.354 25.7754C170.103 25.7754 171.908 23.323 171.908 19.9042C171.908 16.4856 170.103 14.0097 166.354 14.0097ZM166.355 23.5372C164.574 23.5372 163.625 22.3585 163.625 19.9061C163.625 17.4777 164.574 16.2749 166.355 16.2749C168.137 16.2749 169.062 17.4542 169.062 19.9061C169.062 22.335 168.137 23.5372 166.355 23.5372ZM187.526 14.0097C186.346 14.0097 185.004 14.6699 183.778 15.4953L183.454 15.7076C182.875 14.4579 181.719 14.0097 180.446 14.0097C179.266 14.0097 177.924 14.6231 176.698 15.4483V14.2929H174.106V25.492H176.86V17.4523C177.878 16.7687 178.965 16.3443 179.752 16.3443C180.655 16.3443 181.21 16.8391 181.21 18.4192V25.492H183.94V17.4758C184.958 16.7921 186.046 16.3443 186.832 16.3443C187.734 16.3443 188.29 16.8391 188.29 18.4192V25.492H191.02V17.759C191.02 15.5894 189.747 14.0097 187.526 14.0097ZM108.517 16.132H108.425V14.2929H105.88V25.4921H108.61V18.8197C109.466 17.1695 110.507 16.6272 112.242 16.6272H112.52V14.1988C112.52 14.1988 112.127 14.1514 111.78 14.1514C110.299 14.1514 109.281 14.7408 108.517 16.132ZM74.2681 16.132H74.1757V14.2929H71.6301V25.4921H74.3607V18.8197C75.2166 17.1695 76.2578 16.6272 77.993 16.6272H78.271V14.1988C78.271 14.1988 77.8772 14.1514 77.5307 14.1514C76.0494 14.1514 75.0316 14.7408 74.2681 16.132ZM152.805 19.7866C152.805 17.1695 154.216 16.2731 155.882 16.2731C156.993 16.2731 158.161 16.6037 158.947 16.91V14.5522C158.021 14.2455 157.201 14.0097 155.836 14.0097C152.203 14.0097 149.959 16.2731 149.959 19.9277C149.959 23.3936 151.578 25.7754 155.674 25.7754C156.969 25.7754 157.975 25.5159 159.086 25.1386V22.8278C157.836 23.323 156.877 23.5115 156.021 23.5115C154.216 23.5115 152.805 22.6628 152.805 19.7866ZM138.406 17.4288C138.406 16.5798 139.308 16.2502 140.28 16.2502C141.847 16.2502 143.334 16.7448 143.334 16.7448V14.434C142.316 14.1277 141.275 14.0097 140.072 14.0097C137.434 14.0097 135.583 15.2829 135.583 17.3576C135.583 21.3896 141.043 20.3526 141.043 22.3093C141.043 23.276 140.187 23.5353 138.938 23.5353C138.058 23.5353 136.648 23.1857 135.629 22.8251V25.1124C136.477 25.4522 137.665 25.7754 138.845 25.7754C141.414 25.7754 143.866 24.997 143.866 22.1915C143.866 18.301 138.406 19.3149 138.406 17.4288Z" fill="white"/>
</svg>
